<svg xmlns="http://www.w3.org/2000/svg" xmlns:xlink="http://www.w3.org/1999/xlink" contentStyleType="text/css" data-diagram-type="STATE" height="766px" preserveAspectRatio="none" style="width:520px;height:766px;background:#FFFFFF;" version="1.1" viewBox="0 0 520 766" width="520px" zoomAndPan="magnify"><?plantuml 1.2026.6?><defs/><g><g class="entity" data-qualified-name="SISTEMAS_EVALUACION_ABIERTO" data-source-line="4" id="ent0001"><rect fill="#F1F1F1" height="50" rx="12.5" ry="12.5" style="stroke:#181818;stroke-width:0.5;" width="242.2631" x="118.87" y="7"/><line style="stroke:#181818;stroke-width:0.5;" x1="118.87" x2="361.1331" y1="36.0679" y2="36.0679"/><text fill="#000000" font-family="sans-serif" font-size="14" lengthAdjust="spacing" textLength="222.2631" x="128.87" y="26.9659">SISTEMAS_EVALUACION_ABIERTO</text></g><g class="entity" data-qualified-name="SISTEMA_EVALUACION_ABIERTO" data-source-line="5" id="ent0002"><rect fill="#F1F1F1" height="50" rx="12.5" ry="12.5" style="stroke:#181818;stroke-width:0.5;" width="234.5772" x="122.71" y="702.07"/><line style="stroke:#181818;stroke-width:0.5;" x1="122.71" x2="357.2872" y1="731.1379" y2="731.1379"/><text fill="#000000" font-family="sans-serif" font-size="14" lengthAdjust="spacing" textLength="214.5772" x="132.71" y="722.0359">SISTEMA_EVALUACION_ABIERTO</text></g><g class="entity" data-qualified-name="crearSistemaEvaluacion" data-source-line="12" id="ent0003"><path d="M19.5,154 L460.5,154 A12.5,12.5 0 0 1 473,166.5 L473,183.0679 L7,183.0679 L7,166.5 A12.5,12.5 0 0 1 19.5,154" fill="#F1F1F1"/><rect fill="none" height="451.0679" rx="12.5" ry="12.5" style="stroke:#181818;stroke-width:0.5;" width="466" x="7" y="154"/><line style="stroke:#181818;stroke-width:0.5;" x1="7" x2="473" y1="183.0679" y2="183.0679"/><text fill="#000000" font-family="sans-serif" font-size="14" lengthAdjust="spacing" textLength="164.6534" x="157.6733" y="173.9659">crearSistemaEvaluacion()</text><g class="entity" data-qualified-name="crearSistemaEvaluacion.SolicitandoDatos" data-source-line="14" id="ent0004"><rect fill="#F1F1F1" height="50" rx="12.5" ry="12.5" style="stroke:#181818;stroke-width:0.5;" width="50" x="19" y="376.0679"/><line style="stroke:#181818;stroke-width:0.5;" x1="19" x2="69" y1="405.1358" y2="405.1358"/><text fill="#000000" font-family="sans-serif" font-size="14" lengthAdjust="spacing" textLength="3.64" x="42.18" y="396.0339">&#160;</text></g><g class="start_entity" data-qualified-name="crearSistemaEvaluacion..start.crearSistemaEvaluacion" data-source-line="16" id="ent0006"><ellipse cx="44" cy="204.0679" fill="#222222" rx="10" ry="10" style="stroke:#222222;stroke-width:1;"/></g><g class="end_entity" data-qualified-name="crearSistemaEvaluacion..end.crearSistemaEvaluacion" data-source-line="26" id="ent0008"><ellipse cx="44" cy="581.0679" fill="none" rx="11" ry="11" style="stroke:#222222;stroke-width:1;"/><ellipse cx="44" cy="581.0679" fill="#222222" rx="6" ry="6" style="stroke:#222222;stroke-width:1;"/></g><!--link *start*crearSistemaEvaluacion to SolicitandoDatos--><g class="link" data-entity-1="ent0006" data-entity-2="ent0004" data-link-type="dependency" data-source-line="16" id="lnk7"><path d="M44,214.4779 C44,243.5379 44,327.5479 44,370.8679" fill="none" id="*start*crearSistemaEvaluacion-to-SolicitandoDatos" style="stroke:#008000;stroke-width:1;"/><polygon fill="#008000" points="44,375.8679,48,366.8679,44,370.8679,40,366.8679,44,375.8679" style="stroke:#008000;stroke-width:1;stroke-linejoin:miter;stroke-miterlimit:10;"/><path d="M49,237.0679 L49,353.0679 L449,353.0679 L449,247.0679 L439,237.0679 L49,237.0679" fill="#FEFFDD" style="stroke:#181818;stroke-width:0.5;"/><path d="M439,237.0679 L439,247.0679 L449,247.0679 L439,237.0679" fill="#FEFFDD" style="stroke:#181818;stroke-width:0.5;"/><text fill="#000000" font-family="sans-serif" font-size="13" font-weight="700" lengthAdjust="spacing" textLength="51.441" x="55" y="255.9649">Sistema</text><text fill="#000000" font-family="sans-serif" font-size="13" lengthAdjust="spacing" textLength="325.1432" x="109.821" y="255.9649">presenta solicitud de datos del sistema de evaluaci&#243;n</text><text fill="#000000" font-family="sans-serif" font-size="13" font-weight="700" lengthAdjust="spacing" textLength="51.441" x="55" y="273.6709">Sistema</text><text fill="#000000" font-family="sans-serif" font-size="13" lengthAdjust="spacing" textLength="78.3901" x="109.821" y="273.6709">muestra tipo</text><text fill="#000000" font-family="sans-serif" font-size="13" font-weight="700" lengthAdjust="spacing" textLength="51.441" x="55" y="291.377">Sistema</text><text fill="#000000" font-family="sans-serif" font-size="13" lengthAdjust="spacing" textLength="124.4881" x="109.821" y="291.377">muestra descripci&#243;n</text><text fill="#000000" font-family="sans-serif" font-size="13" font-weight="700" lengthAdjust="spacing" textLength="51.441" x="55" y="309.083">Sistema</text><text fill="#000000" font-family="sans-serif" font-size="13" lengthAdjust="spacing" textLength="181.5842" x="109.821" y="309.083">muestra ponderaci&#243;n m&#237;nima</text><text fill="#000000" font-family="sans-serif" font-size="13" font-weight="700" lengthAdjust="spacing" textLength="51.441" x="55" y="326.789">Sistema</text><text fill="#000000" font-family="sans-serif" font-size="13" lengthAdjust="spacing" textLength="184.3661" x="109.821" y="326.789">muestra ponderaci&#243;n m&#225;xima</text><text fill="#000000" font-family="sans-serif" font-size="13" font-weight="700" lengthAdjust="spacing" textLength="51.441" x="55" y="344.495">Sistema</text><text fill="#000000" font-family="sans-serif" font-size="13" lengthAdjust="spacing" textLength="134.3421" x="109.821" y="344.495">permite solicitar crear</text></g><!--link SolicitandoDatos to *end*crearSistemaEvaluacion--><g class="link" data-entity-1="ent0004" data-entity-2="ent0008" data-link-type="dependency" data-source-line="26" id="lnk9"><path d="M44,426.4479 C44,465.8679 44,536.9779 44,564.6679" fill="none" id="SolicitandoDatos-to-*end*crearSistemaEvaluacion" style="stroke:#008000;stroke-width:1;"/><polygon fill="#008000" points="44,569.6679,48,560.6679,44,564.6679,40,560.6679,44,569.6679" style="stroke:#008000;stroke-width:1;stroke-linejoin:miter;stroke-miterlimit:10;"/><path d="M49,449.0679 L49,547.0679 L307,547.0679 L307,459.0679 L297,449.0679 L49,449.0679" fill="#FEFFDD" style="stroke:#181818;stroke-width:0.5;"/><path d="M297,449.0679 L297,459.0679 L307,459.0679 L297,449.0679" fill="#FEFFDD" style="stroke:#181818;stroke-width:0.5;"/><text fill="#000000" font-family="sans-serif" font-size="13" font-weight="700" lengthAdjust="spacing" textLength="42.224" x="55" y="467.9649">Admin</text><text fill="#000000" font-family="sans-serif" font-size="13" lengthAdjust="spacing" textLength="86.2031" x="100.604" y="467.9649">introduce tipo</text><text fill="#000000" font-family="sans-serif" font-size="13" font-weight="700" lengthAdjust="spacing" textLength="42.224" x="55" y="485.6709">Admin</text><text fill="#000000" font-family="sans-serif" font-size="13" lengthAdjust="spacing" textLength="132.3011" x="100.604" y="485.6709">introduce descripci&#243;n</text><text fill="#000000" font-family="sans-serif" font-size="13" font-weight="700" lengthAdjust="spacing" textLength="42.224" x="55" y="503.377">Admin</text><text fill="#000000" font-family="sans-serif" font-size="13" lengthAdjust="spacing" textLength="189.3972" x="100.604" y="503.377">introduce ponderaci&#243;n m&#237;nima</text><text fill="#000000" font-family="sans-serif" font-size="13" font-weight="700" lengthAdjust="spacing" textLength="42.224" x="55" y="521.083">Admin</text><text fill="#000000" font-family="sans-serif" font-size="13" lengthAdjust="spacing" textLength="192.1792" x="100.604" y="521.083">introduce ponderaci&#243;n m&#225;xima</text><text fill="#000000" font-family="sans-serif" font-size="13" font-weight="700" lengthAdjust="spacing" textLength="42.224" x="55" y="538.789">Admin</text><text fill="#000000" font-family="sans-serif" font-size="13" lengthAdjust="spacing" textLength="77.3631" x="100.604" y="538.789">solicita crear</text></g></g><!--link SISTEMAS_EVALUACION_ABIERTO to crearSistemaEvaluacion--><g class="link" data-entity-1="ent0001" data-entity-2="ent0003" data-link-type="dependency" data-source-line="7" id="lnk5"><path d="M240,57.3 C240,79.42 240,109.51 240,148.52" fill="none" id="SISTEMAS_EVALUACION_ABIERTO-to-crearSistemaEvaluacion" style="stroke:#008000;stroke-width:1;"/><polygon fill="#008000" points="240,153.52,244,144.52,240,148.52,236,144.52,240,153.52" style="stroke:#008000;stroke-width:1;stroke-linejoin:miter;stroke-miterlimit:10;"/><path d="M245,92 L245,119 L505,119 L505,102 L495,92 L245,92" fill="#FEFFDD" style="stroke:#181818;stroke-width:0.5;"/><path d="M495,92 L495,102 L505,102 L495,92" fill="#FEFFDD" style="stroke:#181818;stroke-width:0.5;"/><text fill="#000000" font-family="sans-serif" font-size="13" font-weight="700" lengthAdjust="spacing" textLength="42.224" x="251" y="110.897">Admin</text><text fill="#000000" font-family="sans-serif" font-size="13" lengthAdjust="spacing" textLength="194.2332" x="296.604" y="110.897">solicita crear SistemaEvaluacion</text></g><!--link crearSistemaEvaluacion to SISTEMA_EVALUACION_ABIERTO--><g class="link" data-entity-1="ent0003" data-entity-2="ent0002" data-link-type="dependency" data-source-line="36" id="lnk10"><path d="M240,605.22 C240,644.4 240,674.66 240,696.84" fill="none" id="crearSistemaEvaluacion-to-SISTEMA_EVALUACION_ABIERTO" style="stroke:#008000;stroke-width:1;"/><polygon fill="#008000" points="240,701.84,244,692.84,240,696.84,236,692.84,240,701.84" style="stroke:#008000;stroke-width:1;stroke-linejoin:miter;stroke-miterlimit:10;"/><path d="M245,640.07 L245,667.07 L423,667.07 L423,650.07 L413,640.07 L245,640.07" fill="#FEFFDD" style="stroke:#181818;stroke-width:0.5;"/><path d="M413,640.07 L413,650.07 L423,650.07 L413,640.07" fill="#FEFFDD" style="stroke:#181818;stroke-width:0.5;"/><text fill="#000000" font-family="sans-serif" font-size="13" lengthAdjust="spacing" textLength="157.3261" x="251" y="658.967">editarSistemaEvaluacion()</text></g><?plantuml-src bPF1IWCn48RlUOgXNbGela0fhBg7WbfmgvTIIjmC4hex2KbMBEB3-02UV8I-c4btIudDLjrSDiatC_d_JEnAakQ6rr19GhVM25fLwp1Xp3hk48f9CSjlisAPFsOt3zdLP7gtp2ud-Vri6XCfW1s9Xk7yvDaWqc8uXj8WDuMq3ckUl_2guQLKn4Zv_8h2wLPiz3JEH2rfTF4q1gigMKh7sqWu34KI4C9tEj8LW5iOfBTEpmRmnXZuhyqmyCFZHLUPXBhcJjaMcPyl8a47L80YEM71I-hgRaLfWnR9Y-hKDG84WWZn_gS2sx9X4RjpRhuebQbkq3h3mKcjZkqBjAMH-jSyMf50qzQ3UlD9ikR_u3zUUtYDffRUbDrrclQUjkZ-1iFifw6HszxzNeFtFIF96IMQ4YDRKlifMrBSCLl-m4UszFLsxCKxOpsT77LV_vECB48HF4-q_lxvV0C0?></g></svg>