<svg xmlns="http://www.w3.org/2000/svg" xmlns:xlink="http://www.w3.org/1999/xlink" version="1.1" data-diagram-type="DESCRIPTION" style="width:2657px;height:333px;background:#FFFFFF;" width="2657px" height="333px" viewBox="0 0 2657 333" zoomAndPan="magnify" preserveAspectRatio="none" contentStyleType="text/css"><?plantuml 1.2026.8?><defs/><g font-family="sans-serif" lengthAdjust="spacing"><!--cluster restaurarCopiaSeguridad--><g class="cluster" data-qualified-name="restaurarCopiaSeguridad" id="ent0003" data-source-line="8"><path d="M379.05,6.602 L565.353,6.602 A3.75,3.75 0 0 1 567.853,9.102 L574.853,31.67 L1469.29,31.67 A2.5,2.5 0 0 1 1471.79,34.17 L1471.79,261.102 A2.5,2.5 0 0 1 1469.29,263.602 L379.05,263.602 A2.5,2.5 0 0 1 376.55,261.102 L376.55,9.102 A2.5,2.5 0 0 1 379.05,6.602" style="stroke:#000;stroke-width:1.5;" fill="none"/><line x1="376.55" y1="31.67" x2="574.853" y2="31.67" style="stroke:#000;stroke-width:1.5;"/><text x="380.55" y="23.568" fill="#000" font-size="14" textLength="185.303" font-weight="700">restaurarCopiaSeguridad()</text></g><!--entity RestaurarCopiaSeguridadView--><g class="entity" data-qualified-name="restaurarCopiaSeguridad.RestaurarCopiaSeguridadView" id="ent0004" data-source-line="9"><rect x="392.55" y="175.062" width="219.905" height="39.068" fill="#629EF9" style="stroke:#181818;stroke-width:0.5;" rx="2.5" ry="2.5"/><text x="402.55" y="200.028" fill="#000" font-size="14" textLength="199.905">RestaurarCopiaSeguridadView</text></g><!--entity CopiaSeguridadController--><g class="entity" data-qualified-name="restaurarCopiaSeguridad.CopiaSeguridadController" id="ent0005" data-source-line="10"><rect x="854.29" y="141.062" width="190.883" height="39.068" fill="#B5BD68" style="stroke:#181818;stroke-width:0.5;" rx="2.5" ry="2.5"/><text x="864.29" y="166.028" fill="#000" font-size="14" textLength="170.883">CopiaSeguridadController</text></g><!--entity ManifiestoCopiasSeguridad--><g class="entity" data-qualified-name="restaurarCopiaSeguridad.ManifiestoCopiasSeguridad" id="ent0006" data-source-line="11"><rect x="1255.01" y="167.062" width="200.781" height="39.068" fill="#F2AC4E" style="stroke:#181818;stroke-width:0.5;" rx="2.5" ry="2.5"/><text x="1265.01" y="192.028" fill="#000" font-size="14" textLength="180.781">ManifiestoCopiasSeguridad</text></g><!--entity BaseDatosViva--><g class="entity" data-qualified-name="restaurarCopiaSeguridad.BaseDatosViva" id="ent0007" data-source-line="12"><rect x="1296.98" y="67.062" width="116.838" height="39.068" fill="#F2AC4E" style="stroke:#181818;stroke-width:0.5;" rx="2.5" ry="2.5"/><text x="1306.98" y="92.028" fill="#000" font-size="14" textLength="96.838">BaseDatosViva</text></g><!--entity CopiasSeguridadAbierto--><g class="entity" data-qualified-name="CopiasSeguridadAbierto" id="ent0001" data-source-line="5"><rect x="7" y="175.062" width="222.551" height="39.068" fill="#CDEBA5" style="stroke:#181818;stroke-width:0.5;" rx="2.5" ry="2.5"/><text x="17" y="200.028" fill="#000" font-size="14" textLength="202.551">:COPIAS_SEGURIDAD_ABIERTO</text></g><!--entity CopiasSeguridadAbiertoSalida--><g class="entity" data-qualified-name="CopiasSeguridadAbiertoSalida" id="ent0002" data-source-line="6"><rect x="838.46" y="280.062" width="222.551" height="39.068" fill="#CDEBA5" style="stroke:#181818;stroke-width:0.5;" rx="2.5" ry="2.5"/><text x="848.46" y="305.028" fill="#000" font-size="14" textLength="202.551">:COPIAS_SEGURIDAD_ABIERTO</text></g><g class="entity" data-qualified-name="GMN11" id="ent0012" data-source-line="20"><path d="M1518.79,72.742 L1518.79,100.448 L1766.835,100.448 L1766.835,82.742 L1756.835,72.742 L1518.79,72.742" style="stroke:#181818;stroke-width:0.5;" fill="#FEFFDD"/><path d="M1756.835,72.742 L1756.835,82.742 L1766.835,82.742 L1756.835,72.742" style="stroke:#181818;stroke-width:1;" fill="#FEFFDD"/><text x="1524.79" y="91.639" fill="#000" font-size="13" textLength="227.045">la copia debe figurar en el manifiesto</text></g><g class="entity" data-qualified-name="GMN15" id="ent0016" data-source-line="23"><path d="M1827.83,72.742 L1827.83,100.448 L2076.551,100.448 L2076.551,82.742 L2066.551,72.742 L1827.83,72.742" style="stroke:#181818;stroke-width:0.5;" fill="#FEFFDD"/><path d="M2066.551,72.742 L2066.551,82.742 L2076.551,82.742 L2066.551,72.742" style="stroke:#181818;stroke-width:1;" fill="#FEFFDD"/><text x="1833.83" y="91.639" fill="#000" font-size="13" textLength="227.721">se compara con la versión de la copia</text></g><g class="entity" data-qualified-name="GMN19" id="ent0020" data-source-line="26"><path d="M2137.56,72.742 L2137.56,100.448 L2337.596,100.448 L2337.596,82.742 L2327.596,72.742 L2137.56,72.742" style="stroke:#181818;stroke-width:0.5;" fill="#FEFFDD"/><path d="M2327.596,72.742 L2327.596,82.742 L2337.596,82.742 L2327.596,72.742" style="stroke:#181818;stroke-width:1;" fill="#FEFFDD"/><text x="2143.56" y="91.639" fill="#000" font-size="13" textLength="179.036">solo si la copia es restaurable</text></g><g class="entity" data-qualified-name="GMN23" id="ent0024" data-source-line="29"><path d="M2398.59,72.742 L2398.59,100.448 L2642.93,100.448 L2642.93,82.742 L2632.93,72.742 L2398.59,72.742" style="stroke:#181818;stroke-width:0.5;" fill="#FEFFDD"/><path d="M2632.93,72.742 L2632.93,82.742 L2642.93,82.742 L2632.93,72.742" style="stroke:#181818;stroke-width:1;" fill="#FEFFDD"/><text x="2404.59" y="91.639" fill="#000" font-size="13" textLength="223.34">tras responder; el sistema se reinicia</text></g><!--link CopiasSeguridadAbierto to RestaurarCopiaSeguridadView--><g class="link" data-entity-1="ent0001" data-entity-2="ent0004" id="lnk8" data-source-line="15" data-link-type="dependency"><path d="M229.83,194.602 C280.87,194.602 336.3,194.602 387.19,194.602" style="stroke:#181818;stroke-width:1;" fill="none" id="CopiasSeguridadAbierto-to-RestaurarCopiaSeguridadView"/><polygon points="392.19,194.602,383.19,190.602,387.19,194.602,383.19,198.602,392.19,194.602" fill="#181818" style="stroke:#181818;stroke-width:1;stroke-linejoin:miter;stroke-miterlimit:10;"/><text x="260.55" y="192.154" fill="#000" font-size="8" textLength="99.695">restaurarCopiaSeguridad()</text></g><!--link RestaurarCopiaSeguridadView to CopiaSeguridadController--><g class="link" data-entity-1="ent0004" data-entity-2="ent0005" id="lnk9" data-source-line="17" data-link-type="dependency"><path d="M612.7,186.262 C686.59,180.612 778.244,173.612 848.914,168.222" style="stroke:#181818;stroke-width:1;" fill="none" id="RestaurarCopiaSeguridadView-to-CopiaSeguridadController"/><polygon points="853.9,167.842,844.622,164.538,848.914,168.222,845.23,172.515,853.9,167.842" fill="#181818" style="stroke:#181818;stroke-width:1;stroke-linejoin:miter;stroke-miterlimit:10;"/><text x="681.46" y="169.144" fill="#000" font-size="8" textLength="88.775">restaurarCopia(archivo)</text></g><!--link CopiaSeguridadController to ManifiestoCopiasSeguridad--><g class="link" data-entity-1="ent0005" data-entity-2="ent0006" id="lnk10" data-source-line="19" data-link-type="dependency"><path d="M1002.57,180.552 C1042.53,195.932 1091.01,214.602 1091.01,214.602 C1091.01,214.602 1225.01,214.602 1225.01,214.602 C1225.01,214.602 1236.293,212.161 1257.203,207.631" style="stroke:#181818;stroke-width:1;" fill="none" id="CopiaSeguridadController-to-ManifiestoCopiasSeguridad"/><polygon points="1262.09,206.572,1252.447,204.568,1257.203,207.631,1254.141,212.387,1262.09,206.572" fill="#181818" style="stroke:#181818;stroke-width:1;stroke-linejoin:miter;stroke-miterlimit:10;"/><text x="1092.01" y="212.154" fill="#000" font-size="8" textLength="132.654">leerCopias() : List&lt;CopiaSeguridad></text></g><!--link CopiaSeguridadController to ManifiestoCopiasSeguridad--><g class="link" data-entity-1="ent0005" data-entity-2="ent0006" id="lnk18" data-source-line="25" data-link-type="dependency"><path d="M1045.63,166.712 C1108.56,170.762 1185.99,175.751 1249.85,179.861" style="stroke:#181818;stroke-width:1;" fill="none" id="CopiaSeguridadController-to-ManifiestoCopiasSeguridad-1"/><polygon points="1254.84,180.182,1246.115,175.612,1249.85,179.861,1245.602,183.596,1254.84,180.182" fill="#181818" style="stroke:#181818;stroke-width:1;stroke-linejoin:miter;stroke-miterlimit:10;"/><text x="1104.01" y="167.304" fill="#000" font-size="8" textLength="108.231">registrarCopiaPrevia(motivo)</text></g><!--link BaseDatosViva to GMN11--><g class="link" data-entity-1="ent0007" data-entity-2="ent0012" id="lnk13" data-source-line="20" data-link-type="association"><path d="M1414.16,86.602 C1444.21,86.602 1482.16,86.602 1518.42,86.602" style="stroke:#181818;stroke-width:1;stroke-dasharray:7,7;" fill="none" id="BaseDatosViva-GMN11"/></g><!--link CopiaSeguridadController to BaseDatosViva--><g class="link" data-entity-1="ent0005" data-entity-2="ent0007" id="lnk14" data-source-line="22" data-link-type="dependency"><path d="M1045.51,143.322 C1124.78,128.872 1225.01,110.602 1225.01,110.602 C1225.01,110.602 1257.144,104.634 1291.604,98.244" style="stroke:#181818;stroke-width:1;" fill="none" id="CopiaSeguridadController-to-BaseDatosViva"/><polygon points="1296.52,97.332,1286.942,95.04,1291.604,98.244,1288.4,102.906,1296.52,97.332" fill="#181818" style="stroke:#181818;stroke-width:1;stroke-linejoin:miter;stroke-miterlimit:10;"/><text x="1116.51" y="108.154" fill="#000" font-size="8" textLength="83.183">versionEsquema() : int</text></g><!--link CopiaSeguridadController to BaseDatosViva--><g class="link" data-entity-1="ent0005" data-entity-2="ent0007" id="lnk22" data-source-line="28" data-link-type="dependency"><path d="M993.96,140.562 C1035.18,121.462 1091.01,95.602 1091.01,95.602 C1091.01,95.602 1214.063,91.393 1291.603,88.743" style="stroke:#181818;stroke-width:1;" fill="none" id="CopiaSeguridadController-to-BaseDatosViva-1"/><polygon points="1296.6,88.572,1287.469,84.882,1291.603,88.743,1287.742,92.877,1296.6,88.572" fill="#181818" style="stroke:#181818;stroke-width:1;stroke-linejoin:miter;stroke-miterlimit:10;"/><text x="1123.51" y="88.654" fill="#000" font-size="8" textLength="69.687">sobrescribir(copia)</text></g><!--link GMN11 to GMN15--><g class="link" data-entity-1="ent0012" data-entity-2="ent0016" id="lnk17" data-source-line="23" data-link-type="association"><path d="M1767.06,86.602 C1786.94,86.602 1807.52,86.602 1827.41,86.602" style="stroke:#181818;stroke-width:1;stroke-dasharray:7,7;" fill="none" id="GMN11-GMN15"/></g><!--link GMN15 to GMN19--><g class="link" data-entity-1="ent0016" data-entity-2="ent0020" id="lnk21" data-source-line="26" data-link-type="association"><path d="M2076.66,86.602 C2096.95,86.602 2117.74,86.602 2137.34,86.602" style="stroke:#181818;stroke-width:1;stroke-dasharray:7,7;" fill="none" id="GMN15-GMN19"/></g><!--link GMN19 to GMN23--><g class="link" data-entity-1="ent0020" data-entity-2="ent0024" id="lnk25" data-source-line="29" data-link-type="association"><path d="M2337.71,86.602 C2357.32,86.602 2378.1,86.602 2398.35,86.602" style="stroke:#181818;stroke-width:1;stroke-dasharray:7,7;" fill="none" id="GMN19-GMN23"/></g><!--link RestaurarCopiaSeguridadView to CopiasSeguridadAbiertoSalida--><g class="link" data-entity-1="ent0004" data-entity-2="ent0002" id="lnk26" data-source-line="31" data-link-type="dependency"><path d="M588.3,214.592 C667.39,233.252 779.893,259.785 859.013,278.435" style="stroke:#181818;stroke-width:1;" fill="none" id="RestaurarCopiaSeguridadView-to-CopiasSeguridadAbiertoSalida"/><polygon points="863.88,279.582,856.038,273.624,859.013,278.435,854.202,281.41,863.88,279.582" fill="#181818" style="stroke:#181818;stroke-width:1;stroke-linejoin:miter;stroke-miterlimit:10;"/><text x="643.46" y="226.114" fill="#000" font-size="8" textLength="164.646">presenta restauración en curso o el rechazo</text></g><?plantuml-src hPJ1Jjj048Rl-nIZz98SkA2288L8ZcDGf5QWX795OtlYZ5ZlkhkRL53rgVe8l1YxfhYr5QULm1TxjJF_VFlFZkqzgmeDbY1PaNke22ej7y9224ah1qw3uMBj86T3cMEjX0WVg0f9y26U9TFe20RZ-Efw7YtlbidbryLy5itkekayMTnS3G0jnBfYj4igDePppAEKoJZzNZfBb7ubH8NPFHO4Xgp3ZK5JXpVHGM3GipSS3U270F_ynNHyU9fSdC9YTyejq_TkHdgKviSdq0wCjN96Iqcc6tvn6CKV4_Y2YbVig-ZE-NhYfsXfXaxRMzwY-2d4RblWu62o3tuCPokF1fOVwVnaqkkC47j4wY9zvzrROOWcM_DMZtxpxyYlnNlTwQXBeXTXEnp163wpTMTjuObGsj7BTHw3HCZ2DkIK4gou26H02aX2sTJy1roh5HsWBHdhnoMntpPKOWt5ohKOB7c6CWoWVwk0L2Sz_LAUgY5y9uCC5TwJL_kl3Mrz4qhjwXwqgBJKFkcFGsIRcKeblS4IgrClb1bEsGnhxNPbJrUNghJAoNmAhR2UsTiNh3B4YhFWntzTo9x_H0UfykL8EMnEcDNs-tkGROpLe0E4dy4rFchn3000?></g></svg>