<svg xmlns="http://www.w3.org/2000/svg" xmlns:xlink="http://www.w3.org/1999/xlink" version="1.1" data-diagram-type="STATE" style="width:1125px;height:775px;background:#FFFFFF;" width="1125px" height="775px" viewBox="0 0 1125 775" zoomAndPan="magnify" preserveAspectRatio="none" contentStyleType="text/css"><?plantuml 1.2026.7?><defs/><g font-family="sans-serif" lengthAdjust="spacing"><g class="entity" data-qualified-name="PONDERACIONES_EVALUACION_ABIERTO" id="ent0001" data-source-line="4"><rect x="411.71" y="7" width="293.587" height="50" fill="#F1F1F1" style="stroke:#181818;stroke-width:0.5;" rx="12.5" ry="12.5"/><line x1="411.71" y1="36.068" x2="705.297" y2="36.068" style="stroke:#181818;stroke-width:0.5;"/><text x="421.71" y="26.966" fill="#000" font-size="14" textLength="273.587">PONDERACIONES_EVALUACION_ABIERTO</text></g><g class="entity" data-qualified-name="PONDERACIONES_EVALUACION_ABIERTO_SALIDA" id="ent0002" data-source-line="5"><rect x="411.71" y="711.07" width="293.587" height="50" fill="#F1F1F1" style="stroke:#181818;stroke-width:0.5;" rx="12.5" ry="12.5"/><line x1="411.71" y1="740.138" x2="705.297" y2="740.138" style="stroke:#181818;stroke-width:0.5;"/><text x="421.71" y="731.036" fill="#000" font-size="14" textLength="273.587">PONDERACIONES_EVALUACION_ABIERTO</text></g><g class="entity" data-qualified-name="editarTextoSistemaEvaluacion" id="ent0003" data-source-line="12"><path d="M19.5,154 L1097.5,154 A12.5,12.5 0 0 1 1110,166.5 L1110,183.068 L7,183.068 L7,166.5 A12.5,12.5 0 0 1 19.5,154" fill="#F1F1F1"/><rect x="7" y="154" width="1103" height="460.068" fill="none" style="stroke:#181818;stroke-width:0.5;" rx="12.5" ry="12.5"/><line x1="7" y1="183.068" x2="1110" y2="183.068" style="stroke:#181818;stroke-width:0.5;"/><text x="455.481" y="173.966" fill="#000" font-size="14" textLength="206.037">editarTextoSistemaEvaluacion()</text><g class="entity" data-qualified-name="editarTextoSistemaEvaluacion.EditandoTexto" id="ent0004" data-source-line="14"><rect x="204" y="323.068" width="50" height="50" fill="#F1F1F1" style="stroke:#181818;stroke-width:0.5;" rx="12.5" ry="12.5"/><line x1="204" y1="352.136" x2="254" y2="352.136" style="stroke:#181818;stroke-width:0.5;"/><text x="227.18" y="343.034" fill="#000" font-size="14"> </text></g><g class="entity" data-qualified-name="editarTextoSistemaEvaluacion.c" id="ent0005"><polygon points="229,464.068,241,476.068,229,488.068,217,476.068,229,464.068" fill="#F1F1F1" style="stroke:#181818;stroke-width:0.5;stroke-linejoin:miter;stroke-miterlimit:10;"/></g><g class="start_entity" data-qualified-name="editarTextoSistemaEvaluacion..start.editarTextoSistemaEvaluacion" id="ent0007" data-source-line="17"><ellipse cx="229" cy="204.068" rx="10" ry="10" fill="#222" style="stroke:#222;stroke-width:1;"/></g><g class="end_entity" data-qualified-name="editarTextoSistemaEvaluacion..end.editarTextoSistemaEvaluacion" id="ent0010" data-source-line="30"><ellipse cx="229" cy="590.068" rx="11" ry="11" fill="none" style="stroke:#222;stroke-width:1;"/><ellipse cx="229" cy="590.068" rx="6" ry="6" fill="#222" style="stroke:#222;stroke-width:1;"/></g><!--link *start*editarTextoSistemaEvaluacion to EditandoTexto--><g class="link" data-entity-1="ent0007" data-entity-2="ent0004" id="lnk8" data-source-line="17" data-link-type="dependency"><path d="M229,214.388 C229,236.108 229,285.668 229,317.658" style="stroke:#008000;stroke-width:1;" fill="none" id="*start*editarTextoSistemaEvaluacion-to-EditandoTexto"/><polygon points="229,322.658,233,313.658,229,317.658,225,313.658,229,322.658" fill="#008000" style="stroke:#008000;stroke-width:1;stroke-linejoin:miter;stroke-miterlimit:10;"/><path d="M234,237.068 L234,300.068 L1080,300.068 L1080,247.068 L1070,237.068 L234,237.068" style="stroke:#181818;stroke-width:0.5;" fill="#FEFFDD"/><path d="M1070,237.068 L1070,247.068 L1080,247.068 L1070,237.068" style="stroke:#181818;stroke-width:0.5;" fill="#FEFFDD"/><text x="240" y="255.965" fill="#000" font-size="13" textLength="51.532" font-weight="700">Sistema</text><text x="294.912" y="255.965" fill="#000" font-size="13" textLength="372.905">presenta el texto actual de convocatorias en un área de texto</text><text x="240" y="273.671" fill="#000" font-size="13" textLength="51.532" font-weight="700">Sistema</text><text x="294.912" y="273.671" fill="#000" font-size="13" textLength="770.458">ofrece tres plantillas (asignatura normal, prácticas externas, prácticas de laboratorio) que rellenan el área de texto sin guardar</text><text x="240" y="291.377" fill="#000" font-size="13" textLength="51.532" font-weight="700">Sistema</text><text x="294.912" y="291.377" fill="#000" font-size="13" textLength="152.087">permite solicitar guardar</text></g><!--link EditandoTexto to c--><g class="link" data-entity-1="ent0004" data-entity-2="ent0005" id="lnk9" data-source-line="24" data-link-type="dependency"><path d="M229,373.358 C229,400.398 229,437.948 229,458.368" style="stroke:#008000;stroke-width:1;" fill="none" id="EditandoTexto-to-c"/><polygon points="229,463.368,233,454.368,229,458.368,225,454.368,229,463.368" fill="#008000" style="stroke:#008000;stroke-width:1;stroke-linejoin:miter;stroke-miterlimit:10;"/><path d="M234,396.068 L234,441.068 L583,441.068 L583,406.068 L573,396.068 L234,396.068" style="stroke:#181818;stroke-width:0.5;" fill="#FEFFDD"/><path d="M573,396.068 L573,406.068 L583,406.068 L573,396.068" style="stroke:#181818;stroke-width:0.5;" fill="#FEFFDD"/><text x="240" y="414.965" fill="#000" font-size="13" textLength="55.237" font-weight="700">Profesor</text><text x="298.617" y="414.965" fill="#000" font-size="13" textLength="270.205">edita el texto, o elige una plantilla y la ajusta</text><text x="240" y="432.671" fill="#000" font-size="13" textLength="55.237" font-weight="700">Profesor</text><text x="298.617" y="432.671" fill="#000" font-size="13" textLength="95.108">solicita guardar</text></g><!--link c to *end*editarTextoSistemaEvaluacion--><g class="link" data-entity-1="ent0005" data-entity-2="ent0010" id="lnk11" data-source-line="30" data-link-type="dependency"><path d="M218.82,478.468 C176.67,484.258 18,506.068 18,506.068 C18,506.068 18,561.068 18,561.068 C18,561.068 169.583,581.18 212.993,586.94" style="stroke:#008000;stroke-width:1;" fill="none" id="c-to-*end*editarTextoSistemaEvaluacion"/><polygon points="217.95,587.598,209.554,582.449,212.993,586.94,208.502,590.379,217.95,587.598" fill="#008000" style="stroke:#008000;stroke-width:1;stroke-linejoin:miter;stroke-miterlimit:10;"/><path d="M23,511.068 L23,556.068 L415,556.068 L415,521.068 L405,511.068 L23,511.068" style="stroke:#181818;stroke-width:0.5;" fill="#FEFFDD"/><path d="M405,511.068 L405,521.068 L415,521.068 L405,511.068" style="stroke:#181818;stroke-width:0.5;" fill="#FEFFDD"/><text x="29" y="529.965" fill="#000" font-size="13" textLength="371.228">[el texto contiene el marcador [TABLA] exactamente una vez]</text><text x="29" y="547.671" fill="#000" font-size="13" textLength="51.532" font-weight="700">Sistema</text><text x="83.912" y="547.671" fill="#000" font-size="13" textLength="97.435">persiste el texto</text></g><!--link c to *end*editarTextoSistemaEvaluacion--><g class="link" data-entity-1="ent0005" data-entity-2="ent0010" id="lnk12" data-source-line="36" data-link-type="dependency"><path d="M239,478.588 C278.3,484.558 420,506.068 420,506.068 C420,506.068 420,561.068 420,561.068 C420,561.068 285.807,580.743 245.037,586.713" style="stroke:#F00;stroke-width:1;" fill="none" id="c-to-*end*editarTextoSistemaEvaluacion-1"/><polygon points="240.09,587.438,249.575,590.092,245.037,586.713,248.415,582.176,240.09,587.438" fill="#F00" style="stroke:#F00;stroke-width:1;stroke-linejoin:miter;stroke-miterlimit:10;"/><path d="M425,511.068 L425,556.068 L1086,556.068 L1086,521.068 L1076,511.068 L425,511.068" style="stroke:#181818;stroke-width:0.5;" fill="#FEFFDD"/><path d="M1076,511.068 L1076,521.068 L1086,521.068 L1076,511.068" style="stroke:#181818;stroke-width:0.5;" fill="#FEFFDD"/><text x="431" y="529.965" fill="#000" font-size="13" textLength="338.52">[el marcador [TABLA] aparece cero veces o más de una]</text><text x="431" y="547.671" fill="#000" font-size="13" textLength="51.532" font-weight="700">Sistema</text><text x="485.912" y="547.671" fill="#000" font-size="13" textLength="585.299">presenta mensaje de rechazo: el texto debe contener el marcador [TABLA] exactamente una vez</text></g></g><!--link PONDERACIONES_EVALUACION_ABIERTO to editarTextoSistemaEvaluacion--><g class="link" data-entity-1="ent0001" data-entity-2="ent0003" id="lnk6" data-source-line="7" data-link-type="dependency"><path d="M558.5,57.34 C558.5,79.51 558.5,109.7 558.5,148.91" style="stroke:#008000;stroke-width:1;" fill="none" id="PONDERACIONES_EVALUACION_ABIERTO-to-editarTextoSistemaEvaluacion"/><polygon points="558.5,153.91,562.5,144.91,558.5,148.91,554.5,144.91,558.5,153.91" fill="#008000" style="stroke:#008000;stroke-width:1;stroke-linejoin:miter;stroke-miterlimit:10;"/><path d="M563.5,92 L563.5,119 L880.5,119 L880.5,102 L870.5,92 L563.5,92" style="stroke:#181818;stroke-width:0.5;" fill="#FEFFDD"/><path d="M870.5,92 L870.5,102 L880.5,102 L870.5,92" style="stroke:#181818;stroke-width:0.5;" fill="#FEFFDD"/><text x="569.5" y="110.897" fill="#000" font-size="13" textLength="55.237" font-weight="700">Profesor</text><text x="628.117" y="110.897" fill="#000" font-size="13" textLength="237.731">solicita editar el texto de convocatorias</text></g><!--link editarTextoSistemaEvaluacion to PONDERACIONES_EVALUACION_ABIERTO_SALIDA--><g class="link" data-entity-1="ent0003" data-entity-2="ent0002" id="lnk13" data-source-line="43" data-link-type="dependency"><path d="M478.82,614.36 C472.5,632.54 468.5,644.07 468.5,644.07 C468.5,644.07 468.5,681.07 468.5,681.07 C468.5,681.07 489.613,693.737 513.423,708.027" style="stroke:#008000;stroke-width:1;" fill="none" id="editarTextoSistemaEvaluacion-to-PONDERACIONES_EVALUACION_ABIERTO_SALIDA"/><polygon points="517.71,710.6,512.052,702.539,513.423,708.027,507.935,709.398,517.71,710.6" fill="#008000" style="stroke:#008000;stroke-width:1;stroke-linejoin:miter;stroke-miterlimit:10;"/><path d="M473.5,649.07 L473.5,676.07 L598.5,676.07 L598.5,659.07 L588.5,649.07 L473.5,649.07" style="stroke:#181818;stroke-width:0.5;" fill="#FEFFDD"/><path d="M588.5,649.07 L588.5,659.07 L598.5,659.07 L588.5,649.07" style="stroke:#181818;stroke-width:0.5;" fill="#FEFFDD"/><text x="479.5" y="667.967" fill="#000" font-size="13" textLength="104.364">texto actualizado</text></g><!--link editarTextoSistemaEvaluacion to PONDERACIONES_EVALUACION_ABIERTO_SALIDA--><g class="link" data-entity-1="ent0003" data-entity-2="ent0002" id="lnk14" data-source-line="48" data-link-type="dependency"><path d="M601.88,614.36 C605.32,632.54 607.5,644.07 607.5,644.07 C607.5,644.07 607.5,681.07 607.5,681.07 C607.5,681.07 597.029,692.606 584.069,706.896" style="stroke:#F00;stroke-width:1;" fill="none" id="editarTextoSistemaEvaluacion-to-PONDERACIONES_EVALUACION_ABIERTO_SALIDA-1"/><polygon points="580.71,710.6,589.719,706.621,584.069,706.896,583.793,701.246,580.71,710.6" fill="#F00" style="stroke:#F00;stroke-width:1;stroke-linejoin:miter;stroke-miterlimit:10;"/><path d="M612.5,649.07 L612.5,676.07 L941.5,676.07 L941.5,659.07 L931.5,649.07 L612.5,649.07" style="stroke:#181818;stroke-width:0.5;" fill="#FEFFDD"/><path d="M931.5,649.07 L931.5,659.07 L941.5,659.07 L931.5,649.07" style="stroke:#181818;stroke-width:0.5;" fill="#FEFFDD"/><text x="618.5" y="667.967" fill="#000" font-size="13" textLength="308.49">marcador [TABLA] ausente o repetido, sin cambios</text></g><?plantuml-src dLJDRk8m4BxdAKRifLsrsliA8QLj3aYeL8NT2q9eSARKhMDdRGSLLlimF0iljkC0QRByQfDB7C_FzpEsUvSwHuiPAAd9BtA2tAX5M4IHy-W9dlgF3ybpVD_jFoQ3IV8pxlqe5vFuhfiy3_iNXaq6SQ_x40CwQ9sBRKNHkH2u7NsPMI8zlkq0fTAZ7TA7DmFfF6MOp54LAAJHaJQCpkX0y3rgJpjFrhoGCxRzRTe1PvGKdBmj0QJ0XpAG4WYZvqQWDrQYYqYd44hjP3dLioHvAk3gkWM_emZusLHhySj9ISZHgIcpQji2sctnQgIWJcUJDlewRaYmdzdW7NumzosGadfkoP4Er7USKVW2rHvr80s5XlNA4ePDNxNufw9viIHudmj3hb1xgHIdNw6JCus-iCYWR8RgXfklLy9B4Qf_UB8QNUCdjr4uDRQ4OAxXLq5WIIdIg0FW9XXmKiEiG9kYFKYLR2PPZPtRjX7ywMnODOHiI2oEojeOgTBtIjGRCFmjPyGIugSgi61-W6y5-tkmIZMOnv6A1ZeUYCFuHfM_xAgNf2c0oz0AJ8s5qJ2-wyLZje7jnumdOWDrJiln4IrTM5OCZo6pb9x5jOS2-J8ACoJ86eOWU98CPEjLEH4CQtnoaXczmpSAiLpb5PVcU_r4Jyl1zgo0lLI29ha_KNJosDVzkF0-R5vFzNCebmokTksSwxpL-x_wxljGk586mqBcv6NAWnmEcS1iAatjDlmB?></g></svg>