<svg xmlns="http://www.w3.org/2000/svg" xmlns:xlink="http://www.w3.org/1999/xlink" version="1.1" data-diagram-type="STATE" style="width:1059px;height:780px;background:#FFFFFF;" width="1059px" height="780px" viewBox="0 0 1059 780" zoomAndPan="magnify" preserveAspectRatio="none" contentStyleType="text/css"><?plantuml 1.2026.7beta11?><defs/><g font-family="sans-serif" lengthAdjust="spacing"><g class="entity" data-qualified-name="PONDERACION_EVALUACION_ABIERTO" id="ent0001" data-source-line="3"><rect x="378.13" y="7" width="290.737" height="50" fill="#F1F1F1" style="stroke:#181818;stroke-width:0.5;" rx="12.5" ry="12.5"/><line x1="378.13" y1="33.297" x2="668.867" y2="33.297" style="stroke:#181818;stroke-width:0.5;"/><text x="388.13" y="24.995" fill="#000" font-size="14" textLength="270.737">PONDERACION_EVALUACION_ABIERTO</text></g><g class="entity" data-qualified-name="PONDERACION_EVALUACION_ABIERTO_SALIDA" id="ent0002" data-source-line="4"><rect x="378.13" y="716.3" width="290.737" height="50" fill="#F1F1F1" style="stroke:#181818;stroke-width:0.5;" rx="12.5" ry="12.5"/><line x1="378.13" y1="742.597" x2="668.867" y2="742.597" style="stroke:#181818;stroke-width:0.5;"/><text x="388.13" y="734.295" fill="#000" font-size="14" textLength="270.737">PONDERACION_EVALUACION_ABIERTO</text></g><g class="entity" data-qualified-name="editarPonderacionEvaluacion" id="ent0003" data-source-line="11"><path d="M19.5,152 L1027.5,152 A12.5,12.5 0 0 1 1040,164.5 L1040,178.297 L7,178.297 L7,164.5 A12.5,12.5 0 0 1 19.5,152" fill="#F1F1F1"/><rect x="7" y="152" width="1033" height="469.297" fill="none" style="stroke:#181818;stroke-width:0.5;" rx="12.5" ry="12.5"/><line x1="7" y1="178.297" x2="1040" y2="178.297" style="stroke:#181818;stroke-width:0.5;"/><text x="416.022" y="169.995" fill="#000" font-size="14" textLength="214.956">editarPonderacionEvaluacion()</text><g class="entity" data-qualified-name="editarPonderacionEvaluacion.EditandoDatos" id="ent0004" data-source-line="13"><rect x="196" y="325.297" width="50" height="50" fill="#F1F1F1" style="stroke:#181818;stroke-width:0.5;" rx="12.5" ry="12.5"/><line x1="196" y1="351.594" x2="246" y2="351.594" style="stroke:#181818;stroke-width:0.5;"/><text x="218.775" y="343.292" fill="#000" font-size="14"> </text></g><g class="entity" data-qualified-name="editarPonderacionEvaluacion.c" id="ent0005"><polygon points="221,491.297,233,503.297,221,515.297,209,503.297,221,491.297" fill="#F1F1F1" style="stroke:#181818;stroke-width:0.5;stroke-linejoin:miter;stroke-miterlimit:10;"/></g><g class="start_entity" data-qualified-name="editarPonderacionEvaluacion..start.editarPonderacionEvaluacion" id="ent0007" data-source-line="16"><ellipse cx="221" cy="199.297" rx="10" ry="10" fill="#222" style="stroke:#222;stroke-width:1;"/></g><g class="end_entity" data-qualified-name="editarPonderacionEvaluacion..end.editarPonderacionEvaluacion" id="ent0010" data-source-line="32"><ellipse cx="221" cy="597.297" rx="11" ry="11" fill="none" style="stroke:#222;stroke-width:1;"/><ellipse cx="221" cy="597.297" rx="6" ry="6" fill="#222" style="stroke:#222;stroke-width:1;"/></g><!--link *start*editarPonderacionEvaluacion to EditandoDatos--><g class="link" data-entity-1="ent0007" data-entity-2="ent0004" id="lnk8" data-source-line="16" data-link-type="dependency"><path d="M221,209.617 C221,232.367 221,286.297 221,319.897" style="stroke:#008000;stroke-width:1;" fill="none" id="*start*editarPonderacionEvaluacion-to-EditandoDatos"/><polygon points="221,324.897,225,315.897,221,319.897,217,315.897,221,324.897" fill="#008000" style="stroke:#008000;stroke-width:1;stroke-linejoin:miter;stroke-miterlimit:10;"/><path d="M226,232.297 L226,302.297 L785,302.297 L785,242.297 L775,232.297 L226,232.297" style="stroke:#181818;stroke-width:0.5;" fill="#FEFFDD"/><path d="M775,232.297 L775,242.297 L785,242.297 L775,232.297" style="stroke:#181818;stroke-width:0.5;" fill="#FEFFDD"/><text x="232" y="249.364" fill="#000" font-size="13" textLength="58.906" font-weight="700">Sistema</text><text x="295.039" y="249.364" fill="#000" font-size="13" textLength="277.958">presenta datos actuales de la ponderación</text><text x="232" y="264.497" fill="#000" font-size="13" textLength="58.906" font-weight="700">Sistema</text><text x="295.039" y="264.497" fill="#000" font-size="13" textLength="359.227">presenta selección de SistemaEvaluacion de la Materia</text><text x="232" y="279.629" fill="#000" font-size="13" textLength="58.906" font-weight="700">Sistema</text><text x="295.039" y="279.629" fill="#000" font-size="13" textLength="475.497">muestra el máximo por instrumento del SistemaEvaluacion seleccionado</text><text x="232" y="294.762" fill="#000" font-size="13" textLength="58.906" font-weight="700">Sistema</text><text x="295.039" y="294.762" fill="#000" font-size="13" textLength="161.713">permite solicitar guardar</text></g><!--link EditandoDatos to c--><g class="link" data-entity-1="ent0004" data-entity-2="ent0005" id="lnk9" data-source-line="24" data-link-type="dependency"><path d="M221,375.557 C221,408.567 221,461.337 221,485.807" style="stroke:#008000;stroke-width:1;" fill="none" id="EditandoDatos-to-c"/><polygon points="221,490.807,225,481.807,221,485.807,217,481.807,221,490.807" fill="#008000" style="stroke:#008000;stroke-width:1;stroke-linejoin:miter;stroke-miterlimit:10;"/><path d="M226,398.297 L226,468.297 L509,468.297 L509,408.297 L499,398.297 L226,398.297" style="stroke:#181818;stroke-width:0.5;" fill="#FEFFDD"/><path d="M499,398.297 L499,408.297 L509,408.297 L499,398.297" style="stroke:#181818;stroke-width:0.5;" fill="#FEFFDD"/><text x="232" y="415.364" fill="#000" font-size="13" textLength="62.423" font-weight="700">Profesor</text><text x="298.555" y="415.364" fill="#000" font-size="13" textLength="195.584">selecciona SistemaEvaluacion</text><text x="232" y="430.497" fill="#000" font-size="13" textLength="62.423" font-weight="700">Profesor</text><text x="298.555" y="430.497" fill="#000" font-size="13" textLength="140.347">introduce descripción</text><text x="232" y="445.629" fill="#000" font-size="13" textLength="62.423" font-weight="700">Profesor</text><text x="298.555" y="445.629" fill="#000" font-size="13" textLength="146.974">introduce ponderación</text><text x="232" y="460.762" fill="#000" font-size="13" textLength="62.423" font-weight="700">Profesor</text><text x="298.555" y="460.762" fill="#000" font-size="13" textLength="101.271">solicita guardar</text></g><!--link c to *end*editarPonderacionEvaluacion--><g class="link" data-entity-1="ent0005" data-entity-2="ent0010" id="lnk11" data-source-line="32" data-link-type="dependency"><path d="M210.93,505.737 C169.97,511.587 18,533.297 18,533.297 C18,533.297 18,568.297 18,568.297 C18,568.297 162.287,588.194 204.847,594.064" style="stroke:#008000;stroke-width:1;" fill="none" id="c-to-*end*editarPonderacionEvaluacion"/><polygon points="209.8,594.747,201.431,589.555,204.847,594.064,200.338,597.48,209.8,594.747" fill="#008000" style="stroke:#008000;stroke-width:1;stroke-linejoin:miter;stroke-miterlimit:10;"/><path d="M23,538.297 L23,563.297 L398,563.297 L398,548.297 L388,538.297 L23,538.297" style="stroke:#181818;stroke-width:0.5;" fill="#FEFFDD"/><path d="M388,538.297 L388,548.297 L398,548.297 L388,538.297" style="stroke:#181818;stroke-width:0.5;" fill="#FEFFDD"/><text x="29" y="555.364" fill="#000" font-size="13" textLength="58.906" font-weight="700">Sistema</text><text x="92.039" y="555.364" fill="#000" font-size="13" textLength="291.77">presenta PonderacionEvaluacion actualizada</text></g><!--link c to *end*editarPonderacionEvaluacion--><g class="link" data-entity-1="ent0005" data-entity-2="ent0010" id="lnk12" data-source-line="37" data-link-type="dependency"><path d="M231.04,505.897 C269.2,511.977 403,533.297 403,533.297 C403,533.297 403,568.297 403,568.297 C403,568.297 276.572,587.747 237.052,593.827" style="stroke:#F00;stroke-width:1;" fill="none" id="c-to-*end*editarPonderacionEvaluacion-1"/><polygon points="232.11,594.587,241.614,597.172,237.052,593.827,240.397,589.265,232.11,594.587" fill="#F00" style="stroke:#F00;stroke-width:1;stroke-linejoin:miter;stroke-miterlimit:10;"/><path d="M408,538.297 L408,563.297 L1016,563.297 L1016,548.297 L1006,538.297 L408,538.297" style="stroke:#181818;stroke-width:0.5;" fill="#FEFFDD"/><path d="M1006,538.297 L1006,548.297 L1016,548.297 L1006,538.297" style="stroke:#181818;stroke-width:0.5;" fill="#FEFFDD"/><text x="414" y="555.364" fill="#000" font-size="13" textLength="58.906" font-weight="700">Sistema</text><text x="477.039" y="555.364" fill="#000" font-size="13" textLength="524.354">presenta mensaje de máximo superado para el SistemaEvaluacion seleccionado</text></g></g><!--link PONDERACION_EVALUACION_ABIERTO to editarPonderacionEvaluacion--><g class="link" data-entity-1="ent0001" data-entity-2="ent0003" id="lnk6" data-source-line="6" data-link-type="dependency"><path d="M523.5,57.24 C523.5,78.95 523.5,108.21 523.5,146.57" style="stroke:#008000;stroke-width:1;" fill="none" id="PONDERACION_EVALUACION_ABIERTO-to-editarPonderacionEvaluacion"/><polygon points="523.5,151.57,527.5,142.57,523.5,146.57,519.5,142.57,523.5,151.57" fill="#008000" style="stroke:#008000;stroke-width:1;stroke-linejoin:miter;stroke-miterlimit:10;"/><path d="M528.5,92 L528.5,117 L859.5,117 L859.5,102 L849.5,92 L528.5,92" style="stroke:#181818;stroke-width:0.5;" fill="#FEFFDD"/><path d="M849.5,92 L849.5,102 L859.5,102 L849.5,92" style="stroke:#181818;stroke-width:0.5;" fill="#FEFFDD"/><text x="534.5" y="109.067" fill="#000" font-size="13" textLength="62.423" font-weight="700">Profesor</text><text x="601.055" y="109.067" fill="#000" font-size="13" textLength="243.496">solicita editar PonderacionEvaluacion</text></g><!--link editarPonderacionEvaluacion to PONDERACION_EVALUACION_ABIERTO_SALIDA--><g class="link" data-entity-1="ent0003" data-entity-2="ent0002" id="lnk13" data-source-line="43" data-link-type="dependency"><path d="M435.66,621.57 C428.82,639.79 424.5,651.3 424.5,651.3 C424.5,651.3 424.5,686.3 424.5,686.3 C424.5,686.3 448.051,699.145 474.241,713.435" style="stroke:#008000;stroke-width:1;" fill="none" id="editarPonderacionEvaluacion-to-PONDERACION_EVALUACION_ABIERTO_SALIDA"/><polygon points="478.63,715.83,472.645,708.008,474.241,713.435,468.814,715.031,478.63,715.83" fill="#008000" style="stroke:#008000;stroke-width:1;stroke-linejoin:miter;stroke-miterlimit:10;"/><path d="M429.5,656.3 L429.5,681.3 L571.5,681.3 L571.5,666.3 L561.5,656.3 L429.5,656.3" style="stroke:#181818;stroke-width:0.5;" fill="#FEFFDD"/><path d="M561.5,656.3 L561.5,666.3 L571.5,666.3 L561.5,656.3" style="stroke:#181818;stroke-width:0.5;" fill="#FEFFDD"/><text x="435.5" y="673.367" fill="#000" font-size="13" textLength="121.583">datos actualizados</text></g><!--link editarPonderacionEvaluacion to PONDERACION_EVALUACION_ABIERTO_SALIDA--><g class="link" data-entity-1="ent0003" data-entity-2="ent0002" id="lnk14" data-source-line="48" data-link-type="dependency"><path d="M574.07,621.57 C578.01,639.79 580.5,651.3 580.5,651.3 C580.5,651.3 580.5,686.3 580.5,686.3 C580.5,686.3 568.039,698.101 552.959,712.391" style="stroke:#F00;stroke-width:1;" fill="none" id="editarPonderacionEvaluacion-to-PONDERACION_EVALUACION_ABIERTO_SALIDA-1"/><polygon points="549.33,715.83,558.614,712.543,552.959,712.391,553.111,706.736,549.33,715.83" fill="#F00" style="stroke:#F00;stroke-width:1;stroke-linejoin:miter;stroke-miterlimit:10;"/><path d="M585.5,656.3 L585.5,681.3 L1044.5,681.3 L1044.5,666.3 L1034.5,656.3 L585.5,656.3" style="stroke:#181818;stroke-width:0.5;" fill="#FEFFDD"/><path d="M1034.5,656.3 L1034.5,666.3 L1044.5,666.3 L1034.5,656.3" style="stroke:#181818;stroke-width:0.5;" fill="#FEFFDD"/><text x="591.5" y="673.367" fill="#000" font-size="13" textLength="438.61">ponderación supera el máximo del SistemaEvaluacion, sin cambios</text></g><?plantuml-src dLHTJjmm47xtAKRR5rg1Ue5LfBIRXvKekuAsBmYXMNi05yUER0ULLZrCpz0ZSB6Eis59H18MafVyp3SptpVVEDngMw774eos5EyhWigP-_GYH8WO2TQhaqLncdzUhaukY-_vyRVjO_vfMPn-NUqLT7cM7oyNEM20sNJaJ8Zf03WwVtVjYUp5KGQaT4I_TbQHHwcTBUxGrCsJi8xRSZRnkXNpJRRsxeg2y_EFcmo2Creojiq0mod8AaXf7fMOADTGc_X_y7u6luK0lhQvPdmpfaWGgzm2emkTtnBcStdZjAGisyBEFrpqk3z7zXYd3ypwJ8T89JQaAq-1B9DM2G8eOus60YW2Wppsjks7VtOI7SYGRC8IiWtfAB5DzuLPU8r3cSgQGlIilO7ouUzFNJekxa5R_bgNNCDn3ZEGkQtiB2ets2BvKhC6ZzFrS5sZL-YRuATffhUUV3rXvQYOVGljcddUwI10s-YTgYKnko2zhdfIZuGEJMNOoUDKPOyU--XrRXdnU-CU_GiLZfNqfDvKa2qGy4UIQUUFKFDiUUgGpYhOpnoxZlu8CRMvNN7sEiRwHqjtcP8Sl8nFMhnGjrNe3LMxlcZLwUxJuFuSGj0M99ORtMdoFm00?></g></svg>