<svg xmlns="http://www.w3.org/2000/svg" xmlns:xlink="http://www.w3.org/1999/xlink" contentStyleType="text/css" data-diagram-type="STATE" height="685px" preserveAspectRatio="none" style="width:1377px;height:685px;background:#FFFFFF;" version="1.1" viewBox="0 0 1377 685" width="1377px" zoomAndPan="magnify"><?plantuml 1.2026.6?><defs/><g><g class="entity" data-qualified-name="PROFESORES_ABIERTO" data-source-line="4" id="ent0001"><rect fill="#F1F1F1" height="50" rx="12.5" ry="12.5" style="stroke:#181818;stroke-width:0.5;" width="170.1774" x="599.89" y="7"/><line style="stroke:#181818;stroke-width:0.5;" x1="599.89" x2="770.0674" y1="36.0679" y2="36.0679"/><text fill="#000000" font-family="sans-serif" font-size="14" lengthAdjust="spacing" textLength="150.1774" x="609.89" y="26.9659">PROFESORES_ABIERTO</text></g><g class="entity" data-qualified-name="PROFESORES_ABIERTOS_SALIDA" data-source-line="5" id="ent0002"><rect fill="#F1F1F1" height="50" rx="12.5" ry="12.5" style="stroke:#181818;stroke-width:0.5;" width="170.1774" x="599.89" y="621.07"/><line style="stroke:#181818;stroke-width:0.5;" x1="599.89" x2="770.0674" y1="650.1379" y2="650.1379"/><text fill="#000000" font-family="sans-serif" font-size="14" lengthAdjust="spacing" textLength="150.1774" x="609.89" y="641.0359">PROFESORES_ABIERTO</text></g><g class="entity" data-qualified-name="eliminarProfesor" data-source-line="12" id="ent0003"><path d="M19.5,154 L1350.45,154 A12.5,12.5 0 0 1 1362.95,166.5 L1362.95,183.0679 L7,183.0679 L7,166.5 A12.5,12.5 0 0 1 19.5,154" fill="#F1F1F1"/><rect fill="none" height="370.0679" rx="12.5" ry="12.5" style="stroke:#181818;stroke-width:0.5;" width="1355.95" x="7" y="154"/><line style="stroke:#181818;stroke-width:0.5;" x1="7" x2="1362.95" y1="183.0679" y2="183.0679"/><text fill="#000000" font-family="sans-serif" font-size="14" lengthAdjust="spacing" textLength="118.9016" x="625.5242" y="173.9659">eliminarProfesor()</text><g class="entity" data-qualified-name="eliminarProfesor.ConfirmandoEliminacion" data-source-line="14" id="ent0004"><rect fill="#F1F1F1" height="50" rx="12.5" ry="12.5" style="stroke:#181818;stroke-width:0.5;" width="50" x="46" y="366.0679"/><line style="stroke:#181818;stroke-width:0.5;" x1="46" x2="96" y1="395.1358" y2="395.1358"/><text fill="#000000" font-family="sans-serif" font-size="14" lengthAdjust="spacing" textLength="3.64" x="69.18" y="386.0339">&#160;</text></g><g class="entity" data-qualified-name="eliminarProfesor.c" id="ent0005"><polygon fill="#F1F1F1" points="314,251.0679,326,263.0679,314,275.0679,302,263.0679,314,251.0679" style="stroke:#181818;stroke-width:0.5;stroke-linejoin:miter;stroke-miterlimit:10;"/></g><g class="start_entity" data-qualified-name="eliminarProfesor..start.eliminarProfesor" data-source-line="17" id="ent0007"><ellipse cx="314" cy="204.0679" fill="#222222" rx="10" ry="10" style="stroke:#222222;stroke-width:1;"/></g><g class="end_entity" data-qualified-name="eliminarProfesor..end.eliminarProfesor" data-source-line="25" id="ent0010"><ellipse cx="296" cy="500.0679" fill="none" rx="11" ry="11" style="stroke:#222222;stroke-width:1;"/><ellipse cx="296" cy="500.0679" fill="#222222" rx="6" ry="6" style="stroke:#222222;stroke-width:1;"/></g><!--link *start*eliminarProfesor to c--><g class="link" data-entity-1="ent0007" data-entity-2="ent0005" data-link-type="dependency" data-source-line="17" id="lnk8"><path d="M314,214.4779 C314,224.3479 314,234.8579 314,245.4779" fill="none" id="*start*eliminarProfesor-to-c" style="stroke:#008000;stroke-width:1;"/><polygon fill="#008000" points="314,250.4779,318,241.4779,314,245.4779,310,241.4779,314,250.4779" style="stroke:#008000;stroke-width:1;stroke-linejoin:miter;stroke-miterlimit:10;"/></g><!--link c to ConfirmandoEliminacion--><g class="link" data-entity-1="ent0005" data-entity-2="ent0004" data-link-type="dependency" data-source-line="19" id="lnk9"><path d="M303.6,265.3179 C257.28,270.8679 72,293.0679 72,293.0679 C72,293.0679 71.6022,331.8582 71.3022,360.5882" fill="none" id="c-to-ConfirmandoEliminacion" style="stroke:#008000;stroke-width:1;"/><polygon fill="#008000" points="71.25,365.5879,75.3438,356.6302,71.3022,360.5882,67.3442,356.5466,71.25,365.5879" style="stroke:#008000;stroke-width:1;stroke-linejoin:miter;stroke-miterlimit:10;"/><path d="M77,298.0679 L77,343.0679 L539,343.0679 L539,308.0679 L529,298.0679 L77,298.0679" fill="#FEFFDD" style="stroke:#181818;stroke-width:0.5;"/><path d="M529,298.0679 L529,308.0679 L539,308.0679 L529,298.0679" fill="#FEFFDD" style="stroke:#181818;stroke-width:0.5;"/><text fill="#000000" font-family="sans-serif" font-size="13" font-weight="700" lengthAdjust="spacing" textLength="51.441" x="83" y="316.9649">Sistema</text><text fill="#000000" font-family="sans-serif" font-size="13" lengthAdjust="spacing" textLength="386.8803" x="137.821" y="316.9649">presenta informaci&#243;n del Profesor y advertencia de eliminaci&#243;n</text><text fill="#000000" font-family="sans-serif" font-size="13" font-weight="700" lengthAdjust="spacing" textLength="51.441" x="83" y="334.6709">Sistema</text><text fill="#000000" font-family="sans-serif" font-size="13" lengthAdjust="spacing" textLength="292.6302" x="137.821" y="334.6709">permite solicitar confirmar/cancelar eliminaci&#243;n</text></g><!--link c to *end*eliminarProfesor--><g class="link" data-entity-1="ent0005" data-entity-2="ent0010" data-link-type="dependency" data-source-line="25" id="lnk11"><path d="M324.18,265.3479 C368.69,270.9679 544,293.0679 544,293.0679 C544,293.0679 544,348.0679 544,348.0679 C544,348.0679 537,471.0679 537,471.0679 C537,471.0679 359.0967,491.7417 311.9467,497.2117" fill="none" id="c-to-*end*eliminarProfesor" style="stroke:#FF0000;stroke-width:1;"/><polygon fill="#FF0000" points="306.98,497.7879,316.381,500.7241,311.9467,497.2117,315.4591,492.7774,306.98,497.7879" style="stroke:#FF0000;stroke-width:1;stroke-linejoin:miter;stroke-miterlimit:10;"/><path d="M547.95,377.5679 L547.95,404.5679 L1338.95,404.5679 L1338.95,387.5679 L1328.95,377.5679 L547.95,377.5679" fill="#FEFFDD" style="stroke:#181818;stroke-width:0.5;"/><path d="M1328.95,377.5679 L1328.95,387.5679 L1338.95,387.5679 L1328.95,377.5679" fill="#FEFFDD" style="stroke:#181818;stroke-width:0.5;"/><text fill="#000000" font-family="sans-serif" font-size="13" font-weight="700" lengthAdjust="spacing" textLength="51.441" x="553.95" y="396.4649">Sistema</text><text fill="#000000" font-family="sans-serif" font-size="13" lengthAdjust="spacing" textLength="716.1186" x="608.771" y="396.4649">presenta mensaje de bloqueo por AsignaturaGrado asignadas, rol de DirectorGrado activo o Guias que lo referencian</text></g><!--link ConfirmandoEliminacion to *end*eliminarProfesor--><g class="link" data-entity-1="ent0004" data-entity-2="ent0010" data-link-type="dependency" data-source-line="30" id="lnk12"><path d="M45.74,412.0879 C32.09,422.8979 18,434.0679 18,434.0679 C18,434.0679 18,471.0679 18,471.0679 C18,471.0679 227.7752,492.1967 279.7852,497.4367" fill="none" id="ConfirmandoEliminacion-to-*end*eliminarProfesor" style="stroke:#008000;stroke-width:1;"/><polygon fill="#008000" points="284.76,497.9379,276.2063,493.0559,279.7852,497.4367,275.4044,501.0156,284.76,497.9379" style="stroke:#008000;stroke-width:1;stroke-linejoin:miter;stroke-miterlimit:10;"/><path d="M23,439.0679 L23,466.0679 L269,466.0679 L269,449.0679 L259,439.0679 L23,439.0679" fill="#FEFFDD" style="stroke:#181818;stroke-width:0.5;"/><path d="M259,439.0679 L259,449.0679 L269,449.0679 L259,439.0679" fill="#FEFFDD" style="stroke:#181818;stroke-width:0.5;"/><text fill="#000000" font-family="sans-serif" font-size="13" font-weight="700" lengthAdjust="spacing" textLength="42.224" x="29" y="457.9649">Admin</text><text fill="#000000" font-family="sans-serif" font-size="13" lengthAdjust="spacing" textLength="179.6602" x="74.604" y="457.9649">solicita confirmar eliminaci&#243;n</text></g><!--link ConfirmandoEliminacion to *end*eliminarProfesor--><g class="link" data-entity-1="ent0004" data-entity-2="ent0010" data-link-type="dependency" data-source-line="35" id="lnk13"><path d="M96.3,397.2979 C150.72,408.5579 274,434.0679 274,434.0679 C274,434.0679 284.8962,466.2721 291.0562,484.4621" fill="none" id="ConfirmandoEliminacion-to-*end*eliminarProfesor-1" style="stroke:#0000FF;stroke-width:1;"/><polygon fill="#0000FF" points="292.66,489.1979,293.5619,479.3904,291.0562,484.4621,285.9846,481.9565,292.66,489.1979" style="stroke:#0000FF;stroke-width:1;stroke-linejoin:miter;stroke-miterlimit:10;"/><path d="M291.32,439.0679 L291.32,466.0679 L528.32,466.0679 L528.32,449.0679 L518.32,439.0679 L291.32,439.0679" fill="#FEFFDD" style="stroke:#181818;stroke-width:0.5;"/><path d="M518.32,439.0679 L518.32,449.0679 L528.32,449.0679 L518.32,439.0679" fill="#FEFFDD" style="stroke:#181818;stroke-width:0.5;"/><text fill="#000000" font-family="sans-serif" font-size="13" font-weight="700" lengthAdjust="spacing" textLength="42.224" x="297.32" y="457.9649">Admin</text><text fill="#000000" font-family="sans-serif" font-size="13" lengthAdjust="spacing" textLength="170.6641" x="342.924" y="457.9649">solicita cancelar eliminaci&#243;n</text></g></g><!--link PROFESORES_ABIERTO to eliminarProfesor--><g class="link" data-entity-1="ent0001" data-entity-2="ent0003" data-link-type="dependency" data-source-line="7" id="lnk6"><path d="M684.98,57.45 C684.98,79.86 684.98,110.28 684.98,148.51" fill="none" id="PROFESORES_ABIERTO-to-eliminarProfesor" style="stroke:#008000;stroke-width:1;"/><polygon fill="#008000" points="684.98,153.51,688.98,144.51,684.98,148.51,680.98,144.51,684.98,153.51" style="stroke:#008000;stroke-width:1;stroke-linejoin:miter;stroke-miterlimit:10;"/><path d="M689.98,92 L689.98,119 L907.98,119 L907.98,102 L897.98,92 L689.98,92" fill="#FEFFDD" style="stroke:#181818;stroke-width:0.5;"/><path d="M897.98,92 L897.98,102 L907.98,102 L897.98,92" fill="#FEFFDD" style="stroke:#181818;stroke-width:0.5;"/><text fill="#000000" font-family="sans-serif" font-size="13" font-weight="700" lengthAdjust="spacing" textLength="42.224" x="695.98" y="110.897">Admin</text><text fill="#000000" font-family="sans-serif" font-size="13" lengthAdjust="spacing" textLength="151.7491" x="741.584" y="110.897">solicita eliminar Profesor</text></g><!--link eliminarProfesor to PROFESORES_ABIERTOS_SALIDA--><g class="link" data-entity-1="ent0003" data-entity-2="ent0002" data-link-type="dependency" data-source-line="41" id="lnk14"><path d="M537.75,524.31 C523.37,542.31 513.98,554.07 513.98,554.07 C513.98,554.07 513.98,591.07 513.98,591.07 C513.98,591.07 557.4722,604.804 602.7122,619.094" fill="none" id="eliminarProfesor-to-PROFESORES_ABIERTOS_SALIDA" style="stroke:#008000;stroke-width:1;"/><polygon fill="#008000" points="607.48,620.6,600.1028,614.0749,602.7122,619.094,597.6931,621.7034,607.48,620.6" style="stroke:#008000;stroke-width:1;stroke-linejoin:miter;stroke-miterlimit:10;"/><path d="M518.98,559.07 L518.98,586.07 L636.98,586.07 L636.98,569.07 L626.98,559.07 L518.98,559.07" fill="#FEFFDD" style="stroke:#181818;stroke-width:0.5;"/><path d="M626.98,559.07 L626.98,569.07 L636.98,569.07 L626.98,559.07" fill="#FEFFDD" style="stroke:#181818;stroke-width:0.5;"/><text fill="#000000" font-family="sans-serif" font-size="13" lengthAdjust="spacing" textLength="97.2531" x="524.98" y="577.967">lista actualizada</text></g><!--link eliminarProfesor to PROFESORES_ABIERTOS_SALIDA--><g class="link" data-entity-1="ent0003" data-entity-2="ent0002" data-link-type="dependency" data-source-line="46" id="lnk15"><path d="M682.39,524.31 C682.14,542.31 681.98,554.07 681.98,554.07 C681.98,554.07 681.98,591.07 681.98,591.07 C681.98,591.07 682.5405,601.3178 683.3405,615.6078" fill="none" id="eliminarProfesor-to-PROFESORES_ABIERTOS_SALIDA-1" style="stroke:#FF0000;stroke-width:1;"/><polygon fill="#FF0000" points="683.62,620.6,687.1107,611.3905,683.3405,615.6078,679.1232,611.8377,683.62,620.6" style="stroke:#FF0000;stroke-width:1;stroke-linejoin:miter;stroke-miterlimit:10;"/><path d="M686.98,559.07 L686.98,586.07 L851.98,586.07 L851.98,569.07 L841.98,559.07 L686.98,559.07" fill="#FEFFDD" style="stroke:#181818;stroke-width:0.5;"/><path d="M841.98,559.07 L841.98,569.07 L851.98,569.07 L841.98,559.07" fill="#FEFFDD" style="stroke:#181818;stroke-width:0.5;"/><text fill="#000000" font-family="sans-serif" font-size="13" lengthAdjust="spacing" textLength="144.1441" x="692.98" y="577.967">bloqueada, sin cambios</text></g><!--link eliminarProfesor to PROFESORES_ABIERTOS_SALIDA--><g class="link" data-entity-1="ent0003" data-entity-2="ent0002" data-link-type="dependency" data-source-line="51" id="lnk16"><path d="M836.5,524.31 C851.31,542.31 860.98,554.07 860.98,554.07 C860.98,554.07 860.98,591.07 860.98,591.07 C860.98,591.07 816.0799,604.843 769.5199,619.133" fill="none" id="eliminarProfesor-to-PROFESORES_ABIERTOS_SALIDA-2" style="stroke:#0000FF;stroke-width:1;"/><polygon fill="#0000FF" points="764.74,620.6,774.5175,621.7833,769.5199,619.133,772.1703,614.1354,764.74,620.6" style="stroke:#0000FF;stroke-width:1;stroke-linejoin:miter;stroke-miterlimit:10;"/><path d="M865.98,559.07 L865.98,586.07 L1026.98,586.07 L1026.98,569.07 L1016.98,559.07 L865.98,559.07" fill="#FEFFDD" style="stroke:#181818;stroke-width:0.5;"/><path d="M1016.98,559.07 L1016.98,569.07 L1026.98,569.07 L1016.98,559.07" fill="#FEFFDD" style="stroke:#181818;stroke-width:0.5;"/><text fill="#000000" font-family="sans-serif" font-size="13" lengthAdjust="spacing" textLength="140.0621" x="871.98" y="577.967">cancelada, sin cambios</text></g><?plantuml-src dLDTJjj047xVKupI5rg1k41aoIq18LKAYlk645gl9p1blPFEsaYXwgbwX5wiupWnCN48O3_j_7mptpSpyO72meejmLF0Qhb0MB1VDWzZOcKhXAlPz7oIJMUJx3RzUZcP_PZkTMItMVhzyYm56s6qwnuPisk4a-jFTu8ORauIG4yb1IjNmdECB2Qm5kBGTFTWndcI5keVd-O9HFRagB9T3dH960fe4ZSCNgAksdjfFFeyWj_6W7vjraX_3Vp6OKvIsb3mf4rnn64hpi5uxEwP72P9ct_zvQR7ohLcrpE-WjiZtHYKU4QnmjAkg2y48mQbJc7E2k7etzy01VfE0bY2BHvHAWoEhBes6gn21p5HIjAo6ra5tBf1ENKsEFHgsW5vLheZA5Wqz5I3zt4fCKJx4vjUSy-_QcJTH84qqbsmLItsGcp1Ef7cNTXu3CA-YJuZGLUnhFskeaS6XekQT7gA0vv1S8woqcAex-5HzARr6fs1dUoqEoJP_jAvh_4ZbG_FweynEnUnpNN_NVVFqUiORIDuRJqzwKos3c-em7eptWhVRe727aEaeCJAd3WUgB5HxQr5rdBjBV8V?></g></svg>