<svg xmlns="http://www.w3.org/2000/svg" xmlns:xlink="http://www.w3.org/1999/xlink" contentStyleType="text/css" data-diagram-type="STATE" height="526px" preserveAspectRatio="none" style="width:664px;height:526px;background:#FFFFFF;" version="1.1" viewBox="0 0 664 526" width="664px" zoomAndPan="magnify"><?plantuml 1.2026.6?><defs/><g><g class="entity" data-qualified-name="GUIA_ABIERTO" data-source-line="4" id="ent0001"><rect fill="#F1F1F1" height="50" rx="12.5" ry="12.5" style="stroke:#181818;stroke-width:0.5;" width="118.3356" x="268.83" y="7"/><line style="stroke:#181818;stroke-width:0.5;" x1="268.83" x2="387.1656" y1="36.0679" y2="36.0679"/><text fill="#000000" font-family="sans-serif" font-size="14" lengthAdjust="spacing" textLength="98.3356" x="278.83" y="26.9659">GUIA_ABIERTO</text></g><g class="entity" data-qualified-name="GUIA_ABIERTO_SALIDA" data-source-line="5" id="ent0002"><rect fill="#F1F1F1" height="50" rx="12.5" ry="12.5" style="stroke:#181818;stroke-width:0.5;" width="118.3356" x="268.83" y="462.07"/><line style="stroke:#181818;stroke-width:0.5;" x1="268.83" x2="387.1656" y1="491.1379" y2="491.1379"/><text fill="#000000" font-family="sans-serif" font-size="14" lengthAdjust="spacing" textLength="98.3356" x="278.83" y="482.0359">GUIA_ABIERTO</text></g><g class="entity" data-qualified-name="descargarGuiaPDF" data-source-line="12" id="ent0003"><path d="M19.5,154 L636.5,154 A12.5,12.5 0 0 1 649,166.5 L649,183.0679 L7,183.0679 L7,166.5 A12.5,12.5 0 0 1 19.5,154" fill="#F1F1F1"/><rect fill="none" height="247.0679" rx="12.5" ry="12.5" style="stroke:#181818;stroke-width:0.5;" width="642" x="7" y="154"/><line style="stroke:#181818;stroke-width:0.5;" x1="7" x2="649" y1="183.0679" y2="183.0679"/><text fill="#000000" font-family="sans-serif" font-size="14" lengthAdjust="spacing" textLength="130.4795" x="262.7602" y="173.9659">descargarGuiaPDF()</text><g class="entity" data-qualified-name="descargarGuiaPDF.c" id="ent0004"><polygon fill="#F1F1F1" points="120,251.0679,132,263.0679,120,275.0679,108,263.0679,120,251.0679" style="stroke:#181818;stroke-width:0.5;stroke-linejoin:miter;stroke-miterlimit:10;"/></g><g class="start_entity" data-qualified-name="descargarGuiaPDF..start.descargarGuiaPDF" data-source-line="16" id="ent0006"><ellipse cx="120" cy="204.0679" fill="#222222" rx="10" ry="10" style="stroke:#222222;stroke-width:1;"/></g><g class="end_entity" data-qualified-name="descargarGuiaPDF..end.descargarGuiaPDF" data-source-line="18" id="ent0008"><ellipse cx="120" cy="377.0679" fill="none" rx="11" ry="11" style="stroke:#222222;stroke-width:1;"/><ellipse cx="120" cy="377.0679" fill="#222222" rx="6" ry="6" style="stroke:#222222;stroke-width:1;"/></g><!--link *start*descargarGuiaPDF to c--><g class="link" data-entity-1="ent0006" data-entity-2="ent0004" data-link-type="dependency" data-source-line="16" id="lnk7"><path d="M120,214.4779 C120,224.3479 120,234.8579 120,245.4779" fill="none" id="*start*descargarGuiaPDF-to-c" style="stroke:#008000;stroke-width:1;"/><polygon fill="#008000" points="120,250.4779,124,241.4779,120,245.4779,116,241.4779,120,250.4779" style="stroke:#008000;stroke-width:1;stroke-linejoin:miter;stroke-miterlimit:10;"/></g><!--link c to *end*descargarGuiaPDF--><g class="link" data-entity-1="ent0004" data-entity-2="ent0008" data-link-type="dependency" data-source-line="18" id="lnk9"><path d="M110.95,266.6379 C85.98,273.7379 18,293.0679 18,293.0679 C18,293.0679 18,348.0679 18,348.0679 C18,348.0679 78.5887,364.6933 104.6487,371.8533" fill="none" id="c-to-*end*descargarGuiaPDF" style="stroke:#008000;stroke-width:1;"/><polygon fill="#008000" points="109.47,373.1779,101.8513,366.9365,104.6487,371.8533,99.7319,374.6506,109.47,373.1779" style="stroke:#008000;stroke-width:1;stroke-linejoin:miter;stroke-miterlimit:10;"/><path d="M23,298.0679 L23,343.0679 L196,343.0679 L196,308.0679 L186,298.0679 L23,298.0679" fill="#FEFFDD" style="stroke:#181818;stroke-width:0.5;"/><path d="M186,298.0679 L186,308.0679 L196,308.0679 L186,298.0679" fill="#FEFFDD" style="stroke:#181818;stroke-width:0.5;"/><text fill="#000000" font-family="sans-serif" font-size="13" lengthAdjust="spacing" textLength="152.2951" x="29" y="316.9649">[Guia con PDF generado]</text><text fill="#000000" font-family="sans-serif" font-size="13" font-weight="700" lengthAdjust="spacing" textLength="51.441" x="29" y="334.6709">Sistema</text><text fill="#000000" font-family="sans-serif" font-size="13" lengthAdjust="spacing" textLength="95.8231" x="83.821" y="334.6709">presenta el PDF</text></g><!--link c to *end*descargarGuiaPDF--><g class="link" data-entity-1="ent0004" data-entity-2="ent0008" data-link-type="dependency" data-source-line="24" id="lnk10"><path d="M128.36,267.0579 C149.06,274.4679 201,293.0679 201,293.0679 C201,293.0679 201,348.0679 201,348.0679 C201,348.0679 156.7758,363.3548 134.9858,370.8848" fill="none" id="c-to-*end*descargarGuiaPDF-1" style="stroke:#FF0000;stroke-width:1;"/><polygon fill="#FF0000" points="130.26,372.5179,140.0729,373.359,134.9858,370.8848,137.4599,365.7977,130.26,372.5179" style="stroke:#FF0000;stroke-width:1;stroke-linejoin:miter;stroke-miterlimit:10;"/><path d="M206,298.0679 L206,343.0679 L625,343.0679 L625,308.0679 L615,298.0679 L206,298.0679" fill="#FEFFDD" style="stroke:#181818;stroke-width:0.5;"/><path d="M615,298.0679 L615,308.0679 L625,308.0679 L615,298.0679" fill="#FEFFDD" style="stroke:#181818;stroke-width:0.5;"/><text fill="#000000" font-family="sans-serif" font-size="13" lengthAdjust="spacing" textLength="147.7711" x="212" y="316.9649">[Guia sin PDF generado]</text><text fill="#000000" font-family="sans-serif" font-size="13" font-weight="700" lengthAdjust="spacing" textLength="51.441" x="212" y="334.6709">Sistema</text><text fill="#000000" font-family="sans-serif" font-size="13" lengthAdjust="spacing" textLength="343.2263" x="266.821" y="334.6709">presenta mensaje de bloqueo: PDF no generado todav&#237;a</text></g></g><!--link GUIA_ABIERTO to descargarGuiaPDF--><g class="link" data-entity-1="ent0001" data-entity-2="ent0003" data-link-type="dependency" data-source-line="7" id="lnk5"><path d="M328,57.24 C328,80.34 328,111.96 328,148.7" fill="none" id="GUIA_ABIERTO-to-descargarGuiaPDF" style="stroke:#008000;stroke-width:1;"/><polygon fill="#008000" points="328,153.7,332,144.7,328,148.7,324,144.7,328,153.7" style="stroke:#008000;stroke-width:1;stroke-linejoin:miter;stroke-miterlimit:10;"/><path d="M333,92 L333,119 L644,119 L644,102 L634,92 L333,92" fill="#FEFFDD" style="stroke:#181818;stroke-width:0.5;"/><path d="M634,92 L634,102 L644,102 L634,92" fill="#FEFFDD" style="stroke:#181818;stroke-width:0.5;"/><text fill="#000000" font-family="sans-serif" font-size="13" font-weight="700" lengthAdjust="spacing" textLength="42.224" x="339" y="110.897">Admin</text><text fill="#000000" font-family="sans-serif" font-size="13" lengthAdjust="spacing" textLength="4.836" x="381.224" y="110.897">/</text><text fill="#000000" font-family="sans-serif" font-size="13" font-weight="700" lengthAdjust="spacing" textLength="55.263" x="386.06" y="110.897">Profesor</text><text fill="#000000" font-family="sans-serif" font-size="13" lengthAdjust="spacing" textLength="184.5871" x="444.7031" y="110.897">solicita descargar PDF de Guia</text></g><!--link descargarGuiaPDF to GUIA_ABIERTO_SALIDA--><g class="link" data-entity-1="ent0003" data-entity-2="ent0002" data-link-type="dependency" data-source-line="31" id="lnk11"><path d="M315.07,401.36 C315.56,424.29 316.2094,440.9808 318.4594,456.6508" fill="none" id="descargarGuiaPDF-to-GUIA_ABIERTO_SALIDA" style="stroke:#008000;stroke-width:1;"/><polygon fill="#008000" points="319.17,461.6,321.8502,452.1229,318.4594,456.6508,313.9314,453.2599,319.17,461.6" style="stroke:#008000;stroke-width:1;stroke-linejoin:miter;stroke-miterlimit:10;"/></g><!--link descargarGuiaPDF to GUIA_ABIERTO_SALIDA--><g class="link" data-entity-1="ent0003" data-entity-2="ent0002" data-link-type="dependency" data-source-line="33" id="lnk12"><path d="M340.93,401.36 C340.44,424.29 339.7906,440.9808 337.5406,456.6508" fill="none" id="descargarGuiaPDF-to-GUIA_ABIERTO_SALIDA-1" style="stroke:#FF0000;stroke-width:1;"/><polygon fill="#FF0000" points="336.83,461.6,342.0686,453.2599,337.5406,456.6508,334.1498,452.1229,336.83,461.6" style="stroke:#FF0000;stroke-width:1;stroke-linejoin:miter;stroke-miterlimit:10;"/></g><?plantuml-src bLBHIiCm57tFLrpgYmfZxr8AbUae20wdJsECk-HQuzga9famn4_oA_mnarItTlP1ytOEvvvxpYLs8rM31ckef2AtQmWQNUq2OCmwT0JJXo9VvPV5rTtzxG2rckStnIG7j91q-OInBeJHugGqH6evoa2GvMXADDEjnDdacYdjNRKA8JOiNMUvgALAn-jixC7Cw4UosWGCLbUIIuS73_067a7mOgG41BEVyCUROinZylGiWJV6mBzsYaEQyYSjEMLPoo_Ebxq6lALvZ_IYoFRQnEcm2BYdGeII51aKkXNxWdDf7TKO-pM6B2dVZweWZf93gVrEG-8F6wtypyQQbCNdS3DOL_fbI_eYJYkzDm2d1Rv-Vc0_rpjZlmxTFSp0VncU-AurfFy2?></g></svg>