<svg xmlns="http://www.w3.org/2000/svg" xmlns:xlink="http://www.w3.org/1999/xlink" version="1.1" data-diagram-type="STATE" style="width:606px;height:588px;background:#FFFFFF;" width="606px" height="588px" viewBox="0 0 606 588" zoomAndPan="magnify" preserveAspectRatio="none" contentStyleType="text/css"><?plantuml 1.2026.8?><defs/><g font-family="sans-serif" lengthAdjust="spacing"><g class="entity" data-qualified-name="SISTEMA_DISPONIBLE" id="ent0001" data-source-line="4"><rect x="214.9" y="7" width="165.207" height="50" fill="#F1F1F1" style="stroke:#181818;stroke-width:0.5;" rx="12.5" ry="12.5"/><line x1="214.9" y1="36.068" x2="380.107" y2="36.068" style="stroke:#181818;stroke-width:0.5;"/><text x="224.9" y="26.966" fill="#000" font-size="14" textLength="145.207">SISTEMA_DISPONIBLE</text></g><g class="entity" data-qualified-name="METODOLOGIAS_DOCENTES_ABIERTO" id="ent0002" data-source-line="5"><rect x="161.35" y="524.07" width="272.307" height="50" fill="#F1F1F1" style="stroke:#181818;stroke-width:0.5;" rx="12.5" ry="12.5"/><line x1="161.35" y1="553.138" x2="433.657" y2="553.138" style="stroke:#181818;stroke-width:0.5;"/><text x="171.35" y="544.036" fill="#000" font-size="14" textLength="252.307">METODOLOGIAS_DOCENTES_ABIERTO</text></g><g class="entity" data-qualified-name="abrirMetodologiasDocentes" id="ent0003" data-source-line="12"><path d="M19.5,154 L575.5,154 A12.5,12.5 0 0 1 588,166.5 L588,183.068 L7,183.068 L7,166.5 A12.5,12.5 0 0 1 19.5,154" fill="#F1F1F1"/><rect x="7" y="154" width="581" height="309.068" fill="none" style="stroke:#181818;stroke-width:0.5;" rx="12.5" ry="12.5"/><line x1="7" y1="183.068" x2="588" y2="183.068" style="stroke:#181818;stroke-width:0.5;"/><text x="201.642" y="173.966" fill="#000" font-size="14" textLength="191.715">abrirMetodologiasDocentes()</text><g class="entity" data-qualified-name="abrirMetodologiasDocentes.ListandoCatalogo" id="ent0004" data-source-line="14"><rect x="19" y="305.068" width="50" height="50" fill="#F1F1F1" style="stroke:#181818;stroke-width:0.5;" rx="12.5" ry="12.5"/><line x1="19" y1="334.136" x2="69" y2="334.136" style="stroke:#181818;stroke-width:0.5;"/><text x="42.18" y="325.034" fill="#000" font-size="14"> </text></g><g class="start_entity" data-qualified-name="abrirMetodologiasDocentes..start.abrirMetodologiasDocentes" id="ent0006" data-source-line="16"><ellipse cx="44" cy="204.068" rx="10" ry="10" fill="#222" style="stroke:#222;stroke-width:1;"/></g><g class="end_entity" data-qualified-name="abrirMetodologiasDocentes..end.abrirMetodologiasDocentes" id="ent0008" data-source-line="22"><ellipse cx="44" cy="439.068" rx="11" ry="11" fill="none" style="stroke:#222;stroke-width:1;"/><ellipse cx="44" cy="439.068" rx="6" ry="6" fill="#222" style="stroke:#222;stroke-width:1;"/></g><!--link *start*abrirMetodologiasDocentes to ListandoCatalogo--><g class="link" data-entity-1="ent0006" data-entity-2="ent0004" id="lnk7" data-source-line="16" data-link-type="dependency"><path d="M44,214.388 C44,233.428 44,272.308 44,299.928" style="stroke:#008000;stroke-width:1;" fill="none" id="*start*abrirMetodologiasDocentes-to-ListandoCatalogo"/><polygon points="44,304.928,48,295.928,44,299.928,40,295.928,44,304.928" fill="#008000" style="stroke:#008000;stroke-width:1;stroke-linejoin:miter;stroke-miterlimit:10;"/><path d="M49,237.068 L49,282.068 L564,282.068 L564,247.068 L554,237.068 L49,237.068" style="stroke:#181818;stroke-width:0.5;" fill="#FEFFDD"/><path d="M554,237.068 L554,247.068 L564,247.068 L554,237.068" style="stroke:#181818;stroke-width:0.5;" fill="#FEFFDD"/><text x="55" y="255.965" fill="#000" font-size="13" textLength="51.441" font-weight="700">Sistema</text><text x="109.821" y="255.965" fill="#000" font-size="13" textLength="201.214">presenta selector de Universidad</text><text x="55" y="273.671" fill="#000" font-size="13" textLength="51.441" font-weight="700">Sistema</text><text x="109.821" y="273.671" fill="#000" font-size="13" textLength="440.024">presenta listado de MetodologiaDocente de la Universidad seleccionada</text></g><!--link ListandoCatalogo to *end*abrirMetodologiasDocentes--><g class="link" data-entity-1="ent0004" data-entity-2="ent0008" id="lnk9" data-source-line="22" data-link-type="dependency"><path d="M44,355.348 C44,378.158 44,406.198 44,422.778" style="stroke:#008000;stroke-width:1;" fill="none" id="ListandoCatalogo-to-*end*abrirMetodologiasDocentes"/><polygon points="44,427.778,48,418.778,44,422.778,40,418.778,44,427.778" fill="#008000" style="stroke:#008000;stroke-width:1;stroke-linejoin:miter;stroke-miterlimit:10;"/><path d="M49,378.068 L49,405.068 L221,405.068 L221,388.068 L211,378.068 L49,378.068" style="stroke:#181818;stroke-width:0.5;" fill="#FEFFDD"/><path d="M211,378.068 L211,388.068 L221,388.068 L211,378.068" style="stroke:#181818;stroke-width:0.5;" fill="#FEFFDD"/><text x="55" y="396.965" fill="#000" font-size="13" textLength="42.224" font-weight="700">Admin</text><text x="100.604" y="396.965" fill="#000" font-size="13" textLength="105.807">elige Universidad</text></g></g><!--link SISTEMA_DISPONIBLE to abrirMetodologiasDocentes--><g class="link" data-entity-1="ent0001" data-entity-2="ent0003" id="lnk5" data-source-line="7" data-link-type="dependency"><path d="M297.5,57.37 C297.5,80.07 297.5,110.99 297.5,148.61" style="stroke:#008000;stroke-width:1;" fill="none" id="SISTEMA_DISPONIBLE-to-abrirMetodologiasDocentes"/><polygon points="297.5,153.61,301.5,144.61,297.5,148.61,293.5,144.61,297.5,153.61" fill="#008000" style="stroke:#008000;stroke-width:1;stroke-linejoin:miter;stroke-miterlimit:10;"/><path d="M302.5,92 L302.5,119 L591.5,119 L591.5,102 L581.5,92 L302.5,92" style="stroke:#181818;stroke-width:0.5;" fill="#FEFFDD"/><path d="M581.5,92 L581.5,102 L591.5,102 L581.5,92" style="stroke:#181818;stroke-width:0.5;" fill="#FEFFDD"/><text x="308.5" y="110.897" fill="#000" font-size="13" textLength="42.224" font-weight="700">Admin</text><text x="354.104" y="110.897" fill="#000" font-size="13" textLength="222.742">solicita abrir Metodologías Docentes</text></g><!--link abrirMetodologiasDocentes to METODOLOGIAS_DOCENTES_ABIERTO--><g class="link" data-entity-1="ent0003" data-entity-2="ent0002" id="lnk10" data-source-line="28" data-link-type="dependency"><path d="M297.5,463.3 C297.5,486.74 297.5,503.23 297.5,518.71" style="stroke:#008000;stroke-width:1;" fill="none" id="abrirMetodologiasDocentes-to-METODOLOGIAS_DOCENTES_ABIERTO"/><polygon points="297.5,523.71,301.5,514.71,297.5,518.71,293.5,514.71,297.5,523.71" fill="#008000" style="stroke:#008000;stroke-width:1;stroke-linejoin:miter;stroke-miterlimit:10;"/></g><?plantuml-src VPBTQW8n48NlynI3lMaBqXSGONMNig1kwMwlH6JS31ACcIK91Ibzf3v5Nwo9Q_rbJQuccNDElYHkeqo35hUWbI6_QmWQrhjO2E4yUe8oBwjicYpJl7mhPlbeaXqsfbbLfCMaUCsJSfaMusnMPUKo6UNPUrK8SQk3_lnXROdCeZy4N5bbf-HPikQrGfToJSQJ4uQ3EPjueeqOh8Q9t2epU5aDmR5MjVBOYk6e_lr11qSz6GdHun-WCmc2gjUv-_ZKWoyX88pMfnTcK4nKA8taCNeC2cvRvi-B2xoRhjXqGHON0bqP6ccBUxx6aWlP28uqrPujI88Fepx9EYLHtjNec2WvIivm3ZHnLUEvLvjHApOeSMzykhTONGDSq0NQJg3JSv5Mwzlp7sE-XUX-clEq-n_j3m00?></g></svg>