<svg xmlns="http://www.w3.org/2000/svg" xmlns:xlink="http://www.w3.org/1999/xlink" contentStyleType="text/css" data-diagram-type="SALT" height="202px" preserveAspectRatio="none" style="width:343px;height:202px;background:#FFFFFF;" version="1.1" viewBox="0 0 343 202" width="343px" zoomAndPan="magnify"><?plantuml 1.2026.6?><defs/><g><text fill="#000000" font-family="sans-serif" font-size="12" font-weight="700" lengthAdjust="spacing" textLength="130.0929" x="6" y="18.8281">CURSOS ACAD&#201;MICOS</text><line style="stroke:#AAAAAA;stroke-width:1;" x1="6" x2="337.6335" y1="26.8441" y2="26.8441"/><line style="stroke:#AAAAAA;stroke-width:1;" x1="6" x2="337.6335" y1="28.8441" y2="28.8441"/><text fill="#000000" font-family="sans-serif" font-size="12" font-weight="700" lengthAdjust="spacing" textLength="101.8087" x="7" y="46.1722">Curso acad&#233;mico</text><text fill="#000000" font-family="sans-serif" font-size="12" font-weight="700" lengthAdjust="spacing" textLength="40.2243" x="110.8087" y="46.1722">Estado</text><text fill="#000000" font-family="sans-serif" font-size="12" lengthAdjust="spacing" textLength="58.7764" x="7" y="64.5163">2024-2025</text><text fill="#000000" font-family="sans-serif" font-size="12" lengthAdjust="spacing" textLength="44.7603" x="110.8087" y="64.5163">Inactivo</text><rect fill="#EEEEEE" height="20.3441" rx="5" ry="5" style="stroke:#000000;stroke-width:2.5;" width="44" x="222.1335" y="54.1882"/><text fill="#000000" font-family="sans-serif" font-size="12" lengthAdjust="spacing" textLength="28.0562" x="230.1054" y="69.0163">Abrir</text><text fill="#000000" font-family="sans-serif" font-size="12" lengthAdjust="spacing" textLength="58.7764" x="7" y="91.8604">2025-2026</text><text fill="#000000" font-family="sans-serif" font-size="12" lengthAdjust="spacing" textLength="44.7603" x="110.8087" y="91.8604">Inactivo</text><rect fill="#EEEEEE" height="20.3441" rx="5" ry="5" style="stroke:#000000;stroke-width:2.5;" width="44" x="222.1335" y="81.5323"/><text fill="#000000" font-family="sans-serif" font-size="12" lengthAdjust="spacing" textLength="28.0562" x="230.1054" y="96.3604">Abrir</text><text fill="#000000" font-family="sans-serif" font-size="12" lengthAdjust="spacing" textLength="58.7764" x="7" y="119.2045">2026-2027</text><text fill="#000000" font-family="sans-serif" font-size="12" lengthAdjust="spacing" textLength="106.8248" x="110.8087" y="119.2045">Activo (semestre 1)</text><rect fill="#EEEEEE" height="20.3441" rx="5" ry="5" style="stroke:#000000;stroke-width:2.5;" width="44" x="222.1335" y="108.8765"/><text fill="#000000" font-family="sans-serif" font-size="12" lengthAdjust="spacing" textLength="28.0562" x="230.1054" y="123.7045">Abrir</text><text fill="#000000" font-family="sans-serif" font-size="12" lengthAdjust="spacing" textLength="58.7764" x="7" y="146.5487">2027-2028</text><text fill="#000000" font-family="sans-serif" font-size="12" lengthAdjust="spacing" textLength="44.7603" x="110.8087" y="146.5487">Inactivo</text><rect fill="#EEEEEE" height="20.3441" rx="5" ry="5" style="stroke:#000000;stroke-width:2.5;" width="44" x="222.1335" y="136.2206"/><text fill="#000000" font-family="sans-serif" font-size="12" lengthAdjust="spacing" textLength="28.0562" x="230.1054" y="151.0487">Abrir</text><rect fill="#EEEEEE" height="20.3441" rx="5" ry="5" style="stroke:#000000;stroke-width:2.5;" width="60" x="273.1335" y="136.2206"/><text fill="#000000" font-family="sans-serif" font-size="12" lengthAdjust="spacing" textLength="38.6403" x="283.8134" y="151.0487">Activar</text><line style="stroke:#000000;stroke-width:1;" x1="6" x2="109.8087" y1="32.3441" y2="32.3441"/><line style="stroke:#000000;stroke-width:1;" x1="218.6335" x2="269.6335" y1="78.0323" y2="78.0323"/><line style="stroke:#000000;stroke-width:1;" x1="109.8087" x2="218.6335" y1="32.3441" y2="32.3441"/><line style="stroke:#000000;stroke-width:1;" x1="269.6335" x2="336.6335" y1="78.0323" y2="78.0323"/><line style="stroke:#000000;stroke-width:1;" x1="218.6335" x2="269.6335" y1="32.3441" y2="32.3441"/><line style="stroke:#000000;stroke-width:1;" x1="269.6335" x2="336.6335" y1="32.3441" y2="32.3441"/><line style="stroke:#000000;stroke-width:1;" x1="6" x2="109.8087" y1="160.0647" y2="160.0647"/><line style="stroke:#000000;stroke-width:1;" x1="109.8087" x2="218.6335" y1="160.0647" y2="160.0647"/><line style="stroke:#000000;stroke-width:1;" x1="218.6335" x2="269.6335" y1="160.0647" y2="160.0647"/><line style="stroke:#000000;stroke-width:1;" x1="6" x2="109.8087" y1="105.3765" y2="105.3765"/><line style="stroke:#000000;stroke-width:1;" x1="269.6335" x2="336.6335" y1="160.0647" y2="160.0647"/><line style="stroke:#000000;stroke-width:1;" x1="109.8087" x2="218.6335" y1="105.3765" y2="105.3765"/><line style="stroke:#000000;stroke-width:1;" x1="6" x2="109.8087" y1="50.6882" y2="50.6882"/><line style="stroke:#000000;stroke-width:1;" x1="218.6335" x2="269.6335" y1="105.3765" y2="105.3765"/><line style="stroke:#000000;stroke-width:1;" x1="109.8087" x2="218.6335" y1="50.6882" y2="50.6882"/><line style="stroke:#000000;stroke-width:1;" x1="269.6335" x2="336.6335" y1="105.3765" y2="105.3765"/><line style="stroke:#000000;stroke-width:1;" x1="218.6335" x2="269.6335" y1="50.6882" y2="50.6882"/><line style="stroke:#000000;stroke-width:1;" x1="269.6335" x2="336.6335" y1="50.6882" y2="50.6882"/><line style="stroke:#000000;stroke-width:1;" x1="6" x2="109.8087" y1="132.7206" y2="132.7206"/><line style="stroke:#000000;stroke-width:1;" x1="109.8087" x2="218.6335" y1="132.7206" y2="132.7206"/><line style="stroke:#000000;stroke-width:1;" x1="6" x2="109.8087" y1="78.0323" y2="78.0323"/><line style="stroke:#000000;stroke-width:1;" x1="218.6335" x2="269.6335" y1="132.7206" y2="132.7206"/><line style="stroke:#000000;stroke-width:1;" x1="109.8087" x2="218.6335" y1="78.0323" y2="78.0323"/><line style="stroke:#000000;stroke-width:1;" x1="269.6335" x2="336.6335" y1="132.7206" y2="132.7206"/><line style="stroke:#000000;stroke-width:1;" x1="6" x2="6" y1="32.3441" y2="50.6882"/><line style="stroke:#000000;stroke-width:1;" x1="336.6335" x2="336.6335" y1="132.7206" y2="160.0647"/><line style="stroke:#000000;stroke-width:1;" x1="109.8087" x2="109.8087" y1="32.3441" y2="50.6882"/><line style="stroke:#000000;stroke-width:1;" x1="218.6335" x2="218.6335" y1="32.3441" y2="50.6882"/><line style="stroke:#000000;stroke-width:1;" x1="269.6335" x2="269.6335" y1="32.3441" y2="50.6882"/><line style="stroke:#000000;stroke-width:1;" x1="336.6335" x2="336.6335" y1="32.3441" y2="50.6882"/><line style="stroke:#000000;stroke-width:1;" x1="6" x2="6" y1="105.3765" y2="132.7206"/><line style="stroke:#000000;stroke-width:1;" x1="109.8087" x2="109.8087" y1="105.3765" y2="132.7206"/><line style="stroke:#000000;stroke-width:1;" x1="218.6335" x2="218.6335" y1="105.3765" y2="132.7206"/><line style="stroke:#000000;stroke-width:1;" x1="269.6335" x2="269.6335" y1="105.3765" y2="132.7206"/><line style="stroke:#000000;stroke-width:1;" x1="336.6335" x2="336.6335" y1="105.3765" y2="132.7206"/><line style="stroke:#000000;stroke-width:1;" x1="6" x2="6" y1="78.0323" y2="105.3765"/><line style="stroke:#000000;stroke-width:1;" x1="109.8087" x2="109.8087" y1="78.0323" y2="105.3765"/><line style="stroke:#000000;stroke-width:1;" x1="218.6335" x2="218.6335" y1="78.0323" y2="105.3765"/><line style="stroke:#000000;stroke-width:1;" x1="269.6335" x2="269.6335" y1="78.0323" y2="105.3765"/><line style="stroke:#000000;stroke-width:1;" x1="336.6335" x2="336.6335" y1="78.0323" y2="105.3765"/><line style="stroke:#000000;stroke-width:1;" x1="6" x2="6" y1="50.6882" y2="78.0323"/><line style="stroke:#000000;stroke-width:1;" x1="109.8087" x2="109.8087" y1="50.6882" y2="78.0323"/><line style="stroke:#000000;stroke-width:1;" x1="218.6335" x2="218.6335" y1="50.6882" y2="78.0323"/><line style="stroke:#000000;stroke-width:1;" x1="269.6335" x2="269.6335" y1="50.6882" y2="78.0323"/><line style="stroke:#000000;stroke-width:1;" x1="336.6335" x2="336.6335" y1="50.6882" y2="78.0323"/><line style="stroke:#000000;stroke-width:1;" x1="6" x2="6" y1="132.7206" y2="160.0647"/><line style="stroke:#000000;stroke-width:1;" x1="109.8087" x2="109.8087" y1="132.7206" y2="160.0647"/><line style="stroke:#000000;stroke-width:1;" x1="218.6335" x2="218.6335" y1="132.7206" y2="160.0647"/><line style="stroke:#000000;stroke-width:1;" x1="269.6335" x2="269.6335" y1="132.7206" y2="160.0647"/><line style="stroke:#AAAAAA;stroke-width:1;" x1="6" x2="337.6335" y1="164.5647" y2="164.5647"/><line style="stroke:#AAAAAA;stroke-width:1;" x1="6" x2="337.6335" y1="166.5647" y2="166.5647"/><rect fill="#EEEEEE" height="20.3441" rx="5" ry="5" style="stroke:#000000;stroke-width:2.5;" width="204" x="8.5" y="172.5647"/><text fill="#000000" font-family="sans-serif" font-size="12" font-weight="700" lengthAdjust="spacing" textLength="148.8131" x="36.0935" y="187.3928">+ Crear Curso Acad&#233;mico</text><?plantuml-src SoWkIImgAKxCAL58J2hAB78kBIhEBtPCJan9pSrCpY_MBSyiIaqhIinDvQhcKW02coGxvz2WOFzW1KTdHvV3dRwUplx1Dlf9Tc1PMo00CwgLmHHC1yXKXKIWgOTNWenLg069kWBjJW6nzK0Ohjx8mCX45qYO0aKzynAJIpBBG8gY7K7kYqLNQWfIQaQKKZEGKdEWg2D4eKPnQcvgSKbHgeAX9cvTvY1T5hWiY0QRbLWK2zPIYne8qI1VQYiu5wKc5Yb0mi0H7WQWC5E8vQhbSaZDIm5501UNeHx8bNfc0000?></g></svg>