<svg xmlns="http://www.w3.org/2000/svg" xmlns:xlink="http://www.w3.org/1999/xlink" version="1.1" data-diagram-type="SALT" style="width:1835px;height:157px;background:#FFFFFF;" width="1835px" height="157px" viewBox="0 0 1835 157" zoomAndPan="magnify" preserveAspectRatio="none" contentStyleType="text/css"><?plantuml 1.2026.7?><defs/><g font-family="sans-serif" lengthAdjust="spacing"><text x="6" y="18.828" fill="#000" font-size="12" textLength="141.253" font-weight="700">GUÍAS DEL GRADO -- GII</text><line x1="6" y1="26.844" x2="1829.631" y2="26.844" style="stroke:#AAA;stroke-width:1;"/><line x1="6" y1="28.844" x2="1829.631" y2="28.844" style="stroke:#AAA;stroke-width:1;"/><rect x="8.5" y="34.844" width="244" height="20.344" fill="#EEE" style="stroke:#000;stroke-width:2.5;" rx="5" ry="5"/><text x="47.099" y="49.672" fill="#000" font-size="12" textLength="166.801" font-weight="700">Notificar guías actualizadas</text><line x1="6" y1="62.188" x2="1829.631" y2="62.188" style="stroke:#AAA;stroke-width:1;"/><line x1="6" y1="64.188" x2="1829.631" y2="64.188" style="stroke:#AAA;stroke-width:1;"/><text x="7" y="81.516" fill="#000" font-size="12" textLength="102.829" font-weight="700">AsignaturaGrado</text><text x="111.829" y="81.516" fill="#000" font-size="12" textLength="73.261" font-weight="700">Profesorado</text><text x="324.046" y="81.516" fill="#000" font-size="12" textLength="40.164" font-weight="700">Estado</text><text x="441.967" y="81.516" fill="#000" font-size="12" textLength="123.073" font-weight="700">Última actualización</text><text x="7" y="99.86" fill="#000" font-size="12" textLength="87.217">Programación I</text><text x="111.829" y="99.86" fill="#000" font-size="12" textLength="210.217">Dr. Manuel Masías, Dr. Pablo Herrero</text><text x="324.046" y="99.86" fill="#000" font-size="12" textLength="115.921">[ En revisión ] ámbar</text><text x="441.967" y="99.86" fill="#000" font-size="12" textLength="167.773">Administración, hace dos días</text><rect x="614.24" y="89.532" width="44" height="20.344" fill="#EEE" style="stroke:#000;stroke-width:2.5;" rx="5" ry="5"/><text x="622.212" y="104.36" fill="#000" font-size="12" textLength="28.056">Abrir</text><line x1="6" y1="67.688" x2="110.829" y2="67.688" style="stroke:#000;stroke-width:1;"/><line x1="323.046" y1="113.376" x2="440.967" y2="113.376" style="stroke:#000;stroke-width:1;"/><line x1="110.829" y1="67.688" x2="323.046" y2="67.688" style="stroke:#000;stroke-width:1;"/><line x1="440.967" y1="113.376" x2="610.74" y2="113.376" style="stroke:#000;stroke-width:1;"/><line x1="323.046" y1="67.688" x2="440.967" y2="67.688" style="stroke:#000;stroke-width:1;"/><line x1="610.74" y1="113.376" x2="661.74" y2="113.376" style="stroke:#000;stroke-width:1;"/><line x1="440.967" y1="67.688" x2="610.74" y2="67.688" style="stroke:#000;stroke-width:1;"/><line x1="610.74" y1="67.688" x2="661.74" y2="67.688" style="stroke:#000;stroke-width:1;"/><line x1="6" y1="86.032" x2="110.829" y2="86.032" style="stroke:#000;stroke-width:1;"/><line x1="110.829" y1="86.032" x2="323.046" y2="86.032" style="stroke:#000;stroke-width:1;"/><line x1="323.046" y1="86.032" x2="440.967" y2="86.032" style="stroke:#000;stroke-width:1;"/><line x1="440.967" y1="86.032" x2="610.74" y2="86.032" style="stroke:#000;stroke-width:1;"/><line x1="610.74" y1="86.032" x2="661.74" y2="86.032" style="stroke:#000;stroke-width:1;"/><line x1="6" y1="113.376" x2="110.829" y2="113.376" style="stroke:#000;stroke-width:1;"/><line x1="110.829" y1="113.376" x2="323.046" y2="113.376" style="stroke:#000;stroke-width:1;"/><line x1="6" y1="67.688" x2="6" y2="86.032" style="stroke:#000;stroke-width:1;"/><line x1="110.829" y1="86.032" x2="110.829" y2="113.376" style="stroke:#000;stroke-width:1;"/><line x1="110.829" y1="67.688" x2="110.829" y2="86.032" style="stroke:#000;stroke-width:1;"/><line x1="323.046" y1="86.032" x2="323.046" y2="113.376" style="stroke:#000;stroke-width:1;"/><line x1="323.046" y1="67.688" x2="323.046" y2="86.032" style="stroke:#000;stroke-width:1;"/><line x1="440.967" y1="86.032" x2="440.967" y2="113.376" style="stroke:#000;stroke-width:1;"/><line x1="440.967" y1="67.688" x2="440.967" y2="86.032" style="stroke:#000;stroke-width:1;"/><line x1="610.74" y1="86.032" x2="610.74" y2="113.376" style="stroke:#000;stroke-width:1;"/><line x1="661.74" y1="86.032" x2="661.74" y2="113.376" style="stroke:#000;stroke-width:1;"/><line x1="610.74" y1="67.688" x2="610.74" y2="86.032" style="stroke:#000;stroke-width:1;"/><line x1="661.74" y1="67.688" x2="661.74" y2="86.032" style="stroke:#000;stroke-width:1;"/><line x1="6" y1="86.032" x2="6" y2="113.376" style="stroke:#000;stroke-width:1;"/><text x="6" y="128.205" fill="#000" font-size="12" textLength="115.405" font-weight="700">Leyenda de estado:</text><text x="124.525" y="128.205" fill="#000" font-size="12" textLength="455.871">[ Borrador ] neutro   [ En revisión ] ámbar   [ Aprobada ] verde   [ Rechazada ] rojo</text><text x="6" y="146.549" fill="#000" font-size="12" textLength="1822.631" font-style="italic">Estado como badge de color (issue 280): 4 estados de guia.puml, etiqueta legible ("En revisión", no "EnRevision"), color aditivo -- el texto se queda. Salt no pinta fondos, se anota el color. Profesorado en vivo desde AsignaturaGrado; "Administración" en Última actualización = volvió a EnRevision por cambio de profesorado del Admin (issue 254)</text><?plantuml-src TLDBRjim4Dth50Dt4mEoaXhf1wbZH8KDDq3Q1WwwCh8OYME51KMw9AMc-HoX5-Yk1-YgH_35EgISs0qGRKIzqVlCQ7JYF5hlK7aeZNQDuiSfOyBC6ebky5rQMbgiARbDWAzHCPvzMV_CBs0oFOFPF9zyXi40PgUde_rY75yvvYiU5k7jJyRBfIpHGjMi_w03B7s3IjwWG1SuSFa_w_P5l6tCSYShZRwnEBCS2ku2U6xDafpP0btYxhp-fRoiSUjJolLVpRNiKPVv5VUqgPnoRM8p-8Yw8SKt5tAc4Jl7GXduGDQI3VeBc6gmr4eNgPUm_bqNtDiTvAAMMZflEzKKhh0a4CQ1Y6qpDo-ij5stzm_3FACVf0M28A3On56SoGBU6nlwi-oXgV7i3i-wXqg-igRWcJBQacMv0CwflCAR3hNcg-bSvSEyIbCRO595mRyqYktsf7CDmV3jGVy83ZUXNAXNl13PggbL2kJbjuOyWg9A5efWhxURh9U2Di3GF296z_hfHXw5zB8rOMTurfwklG57m6e2CxW8UyZKbTGilZIQhTDGHsqOO4PKoM1t0qX36oG5EKxvP67UGU_9b-a5mZDBSWojKIqV0M6R7bOSlCIwaC44LZlUWYD5_SUvlJhiZ_RbEBbFJlZ3XXyhILvcmuFXw-pDFm00?></g></svg>